<?xml version="1.0" encoding="utf-8"?>
<!-- Generator: Adobe Illustrator 18.0.0, SVG Export Plug-In . SVG Version: 6.00 Build 0)  -->
<!DOCTYPE svg PUBLIC "-//W3C//DTD SVG 1.1//EN" "http://www.w3.org/Graphics/SVG/1.1/DTD/svg11.dtd">
<svg version="1.1" id="Layer_1" xmlns="http://www.w3.org/2000/svg" xmlns:xlink="http://www.w3.org/1999/xlink" x="0px" y="0px"
	 viewBox="0 0 395.8 169.7" style="enable-background:new 0 0 395.8 169.7;" xml:space="preserve">
<style type="text/css">
	.st0{fill:#F393BE;}
	.st1{fill:#F5A5C5;}
	.st2{fill:#F8BBC7;}
	.st3{fill:#FACAC9;}
</style>
<g>
	<path class="st0" d="M24,154v-15.8h3.4c3.1,0,3.4,0.1,3.8,1.1c0.2,0.7,0.4,0.9,0.6,0.5c1.2-1.8,6.3-2.3,9.3-1.1
		c6.2,2.6,8.8,9.9,5.7,16.5c-2,4.4-6.9,7-11.8,6.1c-1.1-0.2-2.3-0.6-2.6-1c-1.1-1.4-1.4-0.6-1.4,4.3v5h-3.5H24L24,154L24,154z
		 M38.3,154.9c2.9-1.4,3.9-5.1,2.4-8.1c-1-1.9-2.1-2.5-4.9-2.5c-1.8,0-2.5,0.3-3.6,1.5c-3.1,3.3-0.9,10,3.4,10
		C36.2,155.8,37.4,155.4,38.3,154.9L38.3,154.9z"/>
	<path class="st0" d="M69.7,160.6c-4.6-2.1-7.1-6.5-6.6-12c0.3-3.4,2.1-6.3,5.4-8.5c3.1-2.1,8.4-2.4,11.8-0.8
		c2.3,1.1,4.6,3.6,4.1,4.4c-0.1,0.3-1.3,0.9-2.5,1.3c-2.1,0.8-2.4,0.8-3.4,0.1c-3-2.1-8-0.1-8.7,3.5c-0.4,2.1,0.6,5,1.9,6
		c1.4,1,5.3,1,6.7,0c0.9-0.6,1.3-0.6,3.6,0.4c1.4,0.6,2.6,1.3,2.6,1.5c0,1.1-3.5,3.8-6,4.5C74.8,162.1,72.7,161.9,69.7,160.6z"/>
	<path class="st0" d="M0.1,145.9l0.2-15.4l8.5-0.1c4.7-0.1,9,0,9.6,0.1c1,0.3,1.1,0.6,1.1,3.2v2.9l-2.3,0.4
		c-1.3,0.2-4.1,0.3-6.1,0.1L7.2,137v2.8v2.8l3.6-0.1c5.4-0.3,5.6-0.1,5.6,3.4v3l-2.6,0.3c-1.5,0.2-3.6,0.3-4.6,0.1L7.2,149l-0.1,2.9
		l-0.1,2.9h6.6H20l-0.1,3.1l-0.1,3.1l-9.9,0.1L0,161.3L0.1,145.9L0.1,145.9z"/>
	<path class="st0" d="M52,149.8v-11.5h3.5H59v11.5v11.5h-3.5H52V149.8z"/>
	<path class="st0" d="M89.1,145.9l0.1-15.4l3.6-0.1c2.3-0.1,3.6,0.1,3.6,0.4c0,0.3,0.4,0.5,1.1,0.5c0.6,0,1.4,0.4,1.8,0.8
		c0.4,0.4,1.2,0.8,1.8,0.8c0.8,0,0.9,0.4,0.9,1.8c0,1.6-0.1,1.8-1.3,1.8c-0.7,0-1.3,0.3-1.3,0.6s-0.7,0.4-1.6,0.4l-1.6-0.1l-0.1,4.2
		l-0.1,4.1l2.3-0.2c2.6-0.2,2.8,0.1,2.8,3.1c0,1,0.3,2,0.5,2c0.3,0,0.5,0.8,0.5,1.8c0,2-0.6,2.3-1.5,0.5c-0.6-1-1.1-1.3-2.6-1.3H96
		v5v5h-3.5H89L89.1,145.9L89.1,145.9z"/>
	<path class="st0" d="M52.2,135.8c-0.1-0.1-0.3-1.5-0.3-3.1v-2.9l3.4,0.1l3.4,0.1v2.9v2.9l-3.1,0.1C53.8,136,52.3,136,52.2,135.8z"
		/>
	<path class="st0" d="M138.2,106.8c-0.2-0.4,1-2.4,15-26.8c3.8-6.6,8.1-14.2,9.7-16.9c1.5-2.7,3.1-4.9,3.5-4.9c0.5,0,0.1,0.9-1,2.9
		c-5,8.8-7.5,13.3-7.5,13.7c0,0.3,0.5,1.4,1.3,2.4c1.1,1.9,1.5,2,3.5,2h2.3l-1.3-2.2c-1.5-2.6-1.5-2.8-0.6-2.8
		c0.3,0,1.4,1.4,2.3,2.9c1.8,3.4,1.8,3.4-2.5,3.5c-2.5,0-3.2-0.4-5-2.9l-0.9-1.3l-1,1.3c-1.4,1.6-1.3,2.4,0.2,5.1
		c1.4,2.4,1.5,2.9,0.8,2.9c-0.3,0-1-0.9-1.5-2s-1.2-2-1.4-2c-0.6,0-5.1,7.8-5.1,8.8c0,0.6,0.6,1.9,1.3,2.9c1.4,2.2,1.5,2.8,0.8,2.8
		c-0.3,0-1-0.9-1.8-2.1c-0.7-1.1-1.5-1.9-1.7-1.6c-0.5,0.4-7.5,12.8-7.5,13.1c0,0.1,1,0.1,2.2,0.1c2.1,0,2.3-0.1,3.6-2.5
		c0.8-1.4,1.6-2.5,2-2.5c1,0,0.8,0.6-0.6,2.7c-0.7,1-1.3,1.9-1.3,2.1c0,0.1,2.1,0.3,4.8,0.3s4.8-0.1,4.8-0.4c0-0.3-0.5-1.3-1-2.4
		l-1.1-2.1l1.6-2.9l1.6-2.9h6.1h6.2l1.1-2c1.1-2,2-2.6,2-1.4c0,0.3-0.5,1.5-1.1,2.6l-1.1,2l-6.3,0.1l-6.3,0.1L156,99l-1.3,2.3
		l1.3,2.3c1.2,2.2,1.3,2.3,3.6,2.3c1.4,0,2.4-0.1,2.4-0.3c0-0.1-0.5-1.1-1.3-2.1c-1.4-2.1-1.5-2.6-0.6-2.6c0.3,0,1.1,1.1,1.9,2.4
		c1.2,2.3,1.4,2.4,3.6,2.5c1.3,0.1,2.4,0.4,2.4,0.6c0,0.3-0.3,0.5-0.6,0.5C164.8,107.1,138.4,107,138.2,106.8L138.2,106.8z"/>
	<path class="st0" d="M180.3,94.9c-0.6-1.1-2.6-4.4-4.4-7.5c-1.8-3.1-3.4-5.6-3.5-5.6c-0.1,0-0.8,0.8-1.4,1.8l-1.1,1.8l1,1.7
		c1.2,1.9,1.3,2.3,0.5,2.3c-0.3,0-1-0.8-1.5-1.8c-1-1.6-1.2-1.8-3.7-1.8s-2.7,0.1-3.7,1.8c-0.6,0.9-1,1.9-1,1.9
		c0,0.1,1.2,0.3,2.6,0.4c1.4,0.1,2.6,0.4,2.6,0.6c0,0.3-2.6,0.6-6.6,0.6c-5.3,0.1-6.6,0-6.5-0.5c0.1-0.4,1.3-0.6,3.2-0.6h2.9
		l1.5-2.6l1.5-2.6h3.1h3.1l1.4-2.5c0.8-1.4,1.7-2.4,2-2.4c0.4,0.1,2.6,3.6,5,7.6l4.4,7.5l2.4,0.1c1.6,0.1,2.4,0.4,2.4,0.9
		c0,0.5-0.6,0.7-2.5,0.7C181.6,96.7,181.4,96.6,180.3,94.9L180.3,94.9z"/>
	<path class="st0" d="M177.9,79.9c-1-1.1-1.9-2.9-1.9-3.6c0-1.1,0.8-0.6,1.9,1.3s1.2,1.8,4.1,1.6c2.6-0.2,3-0.1,3,0.7
		c0,0.8-0.5,0.9-3.1,0.9C179.4,80.7,178.4,80.5,177.9,79.9L177.9,79.9z"/>
	<path class="st0" d="M166.1,70.5c-0.5-1.1-0.4-1.6,1-3.9c1.9-3.1,2.2-3.4,4-3.4c0.9,0,1.4,0.3,1.4,0.8s-0.5,0.8-1.5,0.8
		c-1.2,0-1.7,0.4-2.8,2.2s-1.2,2.4-0.8,3.3c0.7,1.3,0.7,1.6-0.1,1.6C166.9,71.8,166.4,71.2,166.1,70.5z"/>
	<path class="st0" d="M172.1,58.7c0.1-0.4,1.4-0.7,3.2-0.8c2-0.1,3.1-0.4,3.6-0.9c0.5-0.8,0.6-0.6,0.6,0.8v1.6h-3.8
		C172.9,59.3,171.9,59.1,172.1,58.7L172.1,58.7z"/>
	<path class="st0" d="M169,52.7c2.2-4.3,8.1-13.9,8.5-13.9c0.6,0,0.5,1.4,0,1.8c-0.3,0.1-0.5,0.6-0.5,1c0,0.5,0.8,0.8,2.6,0.9
		c2.5,0.1,2.6,0.2,2.8,1.6c0.1,1.3,0,1.4-0.4,0.6c-0.5-0.7-1.3-0.9-3.5-0.9h-3l-1.3,2.3l-1.4,2.3l1,1.4c1.9,2.7,2.2,3.6,1.4,3.6
		c-0.4,0-1.1-0.8-1.6-1.8s-1-1.8-1.2-1.8s-0.9,0.9-1.5,2C169.7,53.9,167.9,54.8,169,52.7z"/>
</g>
<g>
	<path class="st1" d="M124,160.9c-6.3-2.3-9.3-9.8-6.4-16c1.9-4.2,6.1-6.7,11.2-6.7c6.2,0,10.6,4.7,10.6,11.1v2.9h-7.8
		c-4.2,0-7.7,0.1-7.7,0.4c0,1.2,1.8,2.5,3.9,3.1c2,0.5,2.8,0.4,4.6-0.2l2.2-0.8l1.7,1.6c0.9,1,1.5,2,1.4,2.3
		C136.2,161.1,128.2,162.4,124,160.9L124,160.9z M133,146.9c0.1-0.1-0.4-0.8-1.1-1.5c-1.9-1.6-4.8-1.6-6.6,0
		c-0.8,0.6-1.3,1.4-1.1,1.6C124.4,147.5,132.5,147.3,133,146.9z"/>
	<path class="st1" d="M151.2,161.3c-2.5-0.6-5.6-3-6.8-5.5c-0.7-1.4-1.2-3.5-1.3-5.5c-0.3-4.3,1.5-8,4.9-10.3c2-1.4,2.6-1.5,6-1.5
		c3.1,0,4,0.2,4.9,0.9c1,0.9,1,0.9,1-0.1c0-1,0.3-1.1,3.5-1.1h3.5v11.5v11.5h-3.5c-2.6,0-3.5-0.1-3.5-0.7c0-0.5-0.4-0.5-1.9,0.3
		C156.2,161.8,153.9,161.9,151.2,161.3L151.2,161.3z M158.3,154.5c2.5-1.6,2.8-6.8,0.5-9c-1.8-1.8-5.2-1.7-7.4,0.3
		c-1.5,1.3-1.6,1.8-1.6,4c0,2.6,1.3,4.6,3.5,5.6C154.5,155.9,156.8,155.5,158.3,154.5L158.3,154.5z"/>
	<path class="st1" d="M92.5,160.8c0-0.3-0.5-0.8-1.1-1c-1.1-0.5-1.1-0.5,0.1-0.2c0.7,0.1,2,0.3,2.9,0.3c1.1,0,1.6,0.3,1.6,0.8
		c0,0.9-1.8,1-2.1,0.1c-0.2-0.5-0.3-0.5-0.3,0C93.5,161.4,92.5,161.5,92.5,160.8z"/>
	<path class="st1" d="M103.5,157.3c-1.4-2.1-2.9-4.8-3.4-5.8c-0.9-1.7-1.9-2.5-1.4-1c0.2,0.5,0,0.8-0.8,0.8c-0.6,0-1.1-0.3-1.1-0.5
		c0-0.3-0.5-0.8-1.1-1c-0.6-0.3-0.9-0.5-0.5-0.5c0.3,0,0.9-0.1,1.1-0.2c0.3,0,1.1-0.1,1.8-0.2c1.1,0,1.9-1.5,0.8-1.5
		c-0.3,0-0.9-0.1-1.4-0.3c-0.8-0.3-0.8-0.2-0.1,0.3c0.4,0.3,0.6,0.7,0.3,0.9c-0.2,0.2-0.7,0-1.1-0.5c-0.4-0.5-0.7-0.7-0.7-0.4
		c0,0.4-0.5,0.6-1.1,0.6c-0.9,0-1,0.1-0.4,0.5c0.6,0.4,0.6,0.5,0.1,0.5c-0.4,0-1.1-0.4-1.4-0.8c-0.7-0.6-0.7-0.9-0.1-1.3
		c0.4-0.3,1.1-0.3,1.5-0.2c0.4,0.1,1.2-0.1,1.8-0.5c0.5-0.4,1.3-0.7,1.7-0.8c0.6,0,0.6,0,0,0.5c-0.4,0.3-0.5,0.5-0.3,0.5
		c0.3,0,0.9-0.4,1.4-0.8c0.6-0.4,1.5-0.8,2.1-0.8c2.1,0,3.6-2.9,2.8-5.1c-0.6-1.6-1.6-2.1-5.1-2.6c-2.9-0.3-2.9-0.3-2.9,0.9
		c0,0.8-0.3,1.3-0.8,1.3c-1.3,0-0.9-2.9,0.5-3.8s1.6-1.7,0.4-1.8c-0.6-0.1-0.5-0.2,0.4-0.4c1.1-0.4,0.9-0.4-0.9-0.4
		c-1.3-0.1-2.1-0.3-2-0.6c0.2-0.8-2.2-1.4-2.9-0.8c-0.4,0.4-0.6,0.3-0.6-0.3c0-1.3,12-0.9,15,0.4c6.9,3.1,8.6,12.2,3,16.8
		c-0.8,0.7-1.5,1.4-1.5,1.5s1.4,2.5,3.1,5.1c1.8,2.7,3.3,5.2,3.6,5.5c0.3,0.5-0.5,0.6-3.4,0.6h-3.8L103.5,157.3L103.5,157.3z"/>
	<path class="st1" d="M171.6,145.7l0.1-15.6l2.8,0.1c1.5,0,3,0.1,3.4,0.1c0.5,0.1,0.6,3.5,0.6,15.5v15.5H175h-3.5L171.6,145.7z"/>
	<path class="st1" d="M183,149.8v-11.5h3.5h3.5v1.5c0,0.9,0.1,1.5,0.3,1.5c0.2,0,1.1-0.6,2-1.5c3.1-2.8,8.9-1.9,12,1.9
		c1.1,1.3,1.1,1.3,1.6,0.3c1-2,4.6-3.6,7.8-3.6c5.4,0,9,3.5,5.3,5.1c-1.4,0.6-2.1,2.4-1,2.4c0.3,0,0.5,1.1,0.5,2.5
		c0,1.4,0.3,2.5,0.5,2.5c0.3,0,0.5,1.1,0.5,2.5c0,2.4,0.1,2.5,1.3,2.5c1.1,0,1.3,0.2,1.3,1.8c0,1.4-0.2,1.8-1,1.8c-0.6,0-1,0.4-1,1
		c0,0.9-0.4,1-2,1h-2v-7c0-3.9-0.3-7.5-0.5-8c-0.3-0.5-1.2-1.3-2-1.7c-1.3-0.6-1.7-0.7-3.1-0.1c-3.4,1.5-3.6,2.2-3.8,9.9l-0.2,7
		h-3.5h-3.5v-7c0-5.5-0.1-7.3-0.8-8.3c-1.9-2.8-6.3-2.4-7.8,0.8c-0.7,1.4-0.9,3-0.9,8.1v6.4h-3.5H183L183,149.8L183,149.8z"/>
	<path class="st1" d="M94.5,156.3c0-1.5,0.2-2,0.8-2s0.8,0.5,0.8,2s-0.2,2-0.8,2S94.5,157.7,94.5,156.3z"/>
	<path class="st1" d="M94.5,151.8c0-1.1,0.2-1.4,0.8-1.2c0.4,0.2,0.8,0.9,0.8,1.5c0,0.8-0.3,1.2-0.8,1.2
		C94.7,153.3,94.5,152.8,94.5,151.8z"/>
	<path class="st1" d="M92.5,150c0-0.4,0.3-0.8,0.5-0.8c0.3,0,0.5,0.4,0.5,0.8s-0.2,0.8-0.5,0.8C92.7,150.8,92.5,150.4,92.5,150z"/>
	<path class="st1" d="M94.4,142.5c0.1-1,0.5-1.8,0.9-1.8c0.4,0,0.7,0.6,0.7,1.8c0,1.4-0.2,1.8-0.9,1.8
		C94.3,144.3,94.2,144,94.4,142.5z"/>
	<path class="st1" d="M93.3,136.2c-0.4-1.4-0.1-1.6,0.8-1.1c0.6,0.4,0.6,0.6,0.1,1.3C93.6,137.2,93.6,137.2,93.3,136.2L93.3,136.2z"
		/>
	<path class="st1" d="M161.6,106.1c0.7-1.1,0.7-1.3,0.1-1.5c-0.4-0.1-0.8-0.6-0.8-1.1c0-0.4-0.2-0.8-0.5-0.8c-0.3,0-0.5-0.4-0.5-1.1
		c0-0.9,0.1-0.9,0.6-0.4c1.1,1.2,2.4,3.8,2.4,4.9c0,0.8-0.3,1.1-1,1.1C160.9,107.3,160.9,107.2,161.6,106.1L161.6,106.1z"/>
	<path class="st1" d="M166.9,106.9c-1.4-0.1-2.4-0.4-2.4-0.6c0-0.3,4.5-0.4,11-0.4c6,0,11-0.1,11-0.2c0-0.1-0.5-1.1-1-2l-1-1.8h-9.1
		c-5.4,0-9.3-0.2-9.5-0.5c-0.5-0.9,2-1.1,10.6-0.9l8.4,0.1l1.7,2.6l1.7,2.6h2.6c2.6,0,2.7-0.1,4-2.3l1.4-2.3l-2.6-4.6
		c-1.5-2.6-2.7-4.8-2.8-4.9c-0.1-0.1-1.6-0.4-3.3-0.5l-3-0.3l-1.6-2.8c-1.8-2.9-2-3.5-1.2-3.5c0.3,0,1.1,1.1,1.9,2.5l1.4,2.6l3-0.1
		l3-0.1l2.5-4.3l2.5-4.3l-1.9-0.3c-2.3-0.4-2.8-0.1-4.4,2.8c-0.7,1.2-1.5,2.2-1.8,2.2c-0.8,0-0.6-0.4,0.8-2.8l1.3-2.2h-2.5
		c-3,0-5.6-0.5-5.6-1.1c0-0.3,0.5-0.4,1.2-0.4c0.6,0,1.5-0.4,1.8-0.8c0.7-0.8,8-13.3,8-13.6c0-0.1-2.1-0.2-4.8-0.2
		c-5.1,0-5.5,0.3-3.8,2.5c1,1.4,1.3,2.5,0.5,2.5c-0.3,0-1.1-1.1-1.9-2.5c-1.4-2.4-1.4-2.5-3.8-2.5s-2.4,0-1.7,1.1
		c1.9,2.9,4.9,8.4,4.9,8.8c0,1.4-1,0.3-3.2-3.6c-1.4-2.3-2.8-4.6-3.1-5.3c-0.5-0.9-1.1-1.1-3.3-1.1c-1.4,0-2.9-0.2-3.3-0.4
		c-0.9-0.6,2.6-1.1,7.2-1c2,0.1,6.6,0,10.5,0l7-0.1l2.9-5.3c1.6-2.9,3-5.3,3.3-5.3c0.2,0,0.9,0.9,1.5,2c0.6,1.1,1.3,2,1.5,2
		c0.6,0,2.3-2.6,2.2-3.6c0-0.5,0.3-0.9,0.6-0.9c1,0,0.9,1.2-0.6,4l-1.4,2.5l1.6,3c2.8,5,0.6,3.5-2.4-1.8c-1.5-2.6-3-4.6-3.2-4.6
		c-0.4,0.1-9.3,15.1-9.3,15.6c0,0.1-1,1.9-2.3,3.9C187,77,186,78.8,186,79c0,0.1,5.3,0.3,11.7,0.3c10.7,0,13.8,0.4,11.5,1.2
		c-0.5,0.2-3.3,0.3-6.3,0.3s-5.6,0.1-5.9,0.4s-1.5,2.4-3,4.9l-2.5,4.4l2.3,4.1c3.2,5.9,3.5,6.1,6.6,5.9c2.5-0.3,2.6-0.4,3.8-2.4
		l1.1-2.3l-1.4-2.4c-1.5-2.7-1.6-3-1-3c0.2,0,1.1,1.1,2,2.5c1.5,2.5,1.6,2.5,4.1,2.5c1.8,0,2.8-0.3,3.2-0.8c0.5-0.8,0.6-0.8,0.9-0.1
		c0.5,1.4-1,2.4-4.1,2.4h-2.9l-1.4,2.5l-1.4,2.5h-3.1c-3,0-3.1,0.1-4.2,1.8c-0.6,0.9-1.1,1.9-1.1,2s2.4,0.3,5.4,0.3h5.4l1.4-2.5
		c0.8-1.4,1.5-2.6,1.8-2.6c2.4-0.4,3.1-0.3,3.1,0.4c0,0.4-0.5,0.7-1.3,0.7c-0.9,0-1.5,0.5-2.3,1.6c-1.2,1.9-1.3,2.4-0.3,2.4
		c0.4,0,0.8,0.4,0.8,0.8c0,0.6-2.7,0.7-19.9,0.6C178.2,107.1,168.2,107,166.9,106.9L166.9,106.9z"/>
	<path class="st1" d="M188.9,99.3c-1.2-2.2-1.5-2.4-3.6-2.8c-3.1-0.5-3-1.4,0.3-1.2c2.5,0.1,2.6,0.3,4,2.4c1.4,2.2,1.8,4,1.1,4
		C190.4,101.8,189.6,100.7,188.9,99.3z"/>
	<path class="st1" d="M167,96.4c0.4-0.1,1.1-0.6,1.6-1.1c1-0.9,1.6-0.6,1.2,0.6c-0.2,0.4-0.9,0.8-2,0.7
		C167,96.7,166.6,96.5,167,96.4L167,96.4z"/>
	<path class="st1" d="M173.9,94.5c-0.6-1.3-1.4-2.3-1.6-2.3c-0.2,0-0.6,0.6-1,1.3c-0.9,1.9-1.5,0.9-0.6-1.2c0.7-1.8,0.7-2.1-0.4-4.1
		c-0.6-1.2-1.4-2.4-1.6-2.5c-0.3-0.2-0.1-0.9,0.4-1.5l0.8-1.1v1.5c0,0.9,0.4,2.1,0.9,2.8c2.3,2.9,5.2,8.6,4.8,9
		C175.3,96.6,174.7,96,173.9,94.5L173.9,94.5z"/>
	<path class="st1" d="M181.1,96.2c-0.4-0.4-0.6-0.9-0.6-1.2c0-0.3-0.4-0.9-0.8-1.2c-0.5-0.4-0.6-0.8-0.5-0.9
		c0.1-0.1-0.5-1.1-1.3-2.3c-0.8-1.1-1.5-2.3-1.5-2.6c0-0.4-0.4-0.9-0.8-1.3s-0.6-0.8-0.5-1c0.1-0.3,0-0.5-0.2-0.6
		c-0.3-0.1-0.9-1-1.5-2.1c-0.5-1.1-1.1-1.9-1.3-1.9c-1.2,0.1-1.3,0-0.8-0.9c0.3-0.6,0.8-0.9,1-0.8c0.3,0.1,1.9,2.8,3.6,5.9
		c4,7.1,4.3,7.5,4.6,8.4c0.1,0.4,0.6,1.3,1.1,1.9C182.6,96.8,182.1,97.2,181.1,96.2L181.1,96.2z"/>
	<path class="st1" d="M197.7,93.4l-1.5-2.8l1.5-2.8l1.5-2.8l3.3-0.1c2.1-0.1,3.4,0.1,3.4,0.4c0,0.3-1.2,0.5-2.9,0.5h-3l-1.3,2.4
		l-1.3,2.4l1.5,2.6c1.7,2.9,1.8,3.1,0.9,3.1C199.5,96.2,198.6,94.9,197.7,93.4L197.7,93.4z"/>
	<path class="st1" d="M164.6,78.8c-0.5-1.2-0.5-1.5,0.1-1.5c0.4,0,1,0.7,1.5,1.5c0.7,1.4,0.7,1.5-0.1,1.5
		C165.6,80.3,165,79.7,164.6,78.8z"/>
	<path class="st1" d="M175,75.2c-2.9-4.9-3.5-6.4-2.6-6.4c0.2,0,1.5,1.9,2.8,4.4c1.4,2.4,2.8,4.7,3.1,5.1c0.4,0.4,0.5,1.1,0.3,1.4
		C178.2,80.2,177.2,78.9,175,75.2z"/>
	<path class="st1" d="M167.5,72.9c-0.8-1.3-1.4-2.4-1.3-2.6c0.5-0.4,1.6,0.5,2.6,2.4C170.5,75.6,169.3,75.8,167.5,72.9z"/>
	<path class="st1" d="M173.1,58.8c0.3-0.9,2.9-1.1,2.9-0.2c0,0.4-0.5,0.7-1,0.7s-1-0.3-1-0.6c0-0.4-0.2-0.4-0.5,0.1
		C173,59.4,172.9,59.4,173.1,58.8L173.1,58.8z"/>
	<path class="st1" d="M176.5,58.8c0-0.3,0.5-0.6,1-0.7c0.5-0.1,1.5-1.3,2.1-2.6c1.2-2.6,1.3-2.1-1.3-6.4c-0.3-0.4-0.4-1.1-0.1-1.3
		c0.4-0.4,1.6,1,3,3.6c0.9,1.7,0.9,1.8,0,3.6c-0.5,1-1,2.1-1.1,2.3c-0.1,0.3,0.9,0.4,2.1,0.3c2.1-0.1,2.5-0.3,3.5-2.1l1.2-2
		l-2.7-4.8c-1.5-2.6-3-5-3.5-5.3c-1-0.8-1-1.2,0.2-1.2c0.7,0,1.9,1.6,4.2,5.6l3.3,5.6l-1.2,1.9c-0.7,1.1-1.1,2.1-1,2.3
		c0.1,0.2,1.1,0.3,2.3,0.2c2-0.2,2.1-0.4,4.5-4.4c1.4-2.4,2.5-4.3,2.5-4.4c0-0.1-1.1-0.3-2.6-0.4l-2.6-0.1l-2.9-5
		c-1.6-2.8-3-5.3-3.2-5.6c-0.1-0.4,0.5-1.8,1.4-3.3c2-3.4,1.9-3.2,2.3-2.8c0.2,0.1-0.3,1.5-1,2.9l-1.5,2.6l2.4,4.2
		c3.4,5.9,3.3,5.9,6.5,5.6c1.6-0.1,2.8,0,3,0.3s-1.1,2.9-2.8,5.9l-3.2,5.4l-7.4,0.1C179.6,59.2,176.5,59.1,176.5,58.8L176.5,58.8z"
		/>
	<path class="st1" d="M174.5,53c-0.3-0.4-0.4-1-0.2-1.3c0.2-0.4,0.1-0.4-0.2-0.3s-0.6,0.3-0.6,0.1c0-0.1-0.1-0.6-0.3-1
		c-0.5-1.4,0.8-0.9,1.8,0.9c0.5,0.9,1,1.8,1,2C176,54,175.1,53.8,174.5,53L174.5,53z"/>
	<path class="st1" d="M203.3,50c-1-2.1-1-2.3-0.4-2.3c0.5,0,2.5,3.1,2.5,3.7c0,0.1-0.3,0.3-0.6,0.3S203.8,51,203.3,50z"/>
	<path class="st1" d="M171.6,49.3c-0.5-0.4-0.5-0.6,0-1.1c0.4-0.4,0.9-1.1,1-1.6c0.5-1.4,2.2-3.6,2.5-3.1c0.4,0.3-2.1,4.6-2.8,4.8
		c-0.2,0.1-0.3,0.5-0.1,0.9C172.6,49.9,172.5,49.9,171.6,49.3L171.6,49.3z"/>
	<path class="st1" d="M206.5,44.8c-0.5-0.8-1-1-3.1-1c-1.5,0-3-0.3-3.5-0.6c-1.3-1-3.9-5.6-3.5-6.1c0.6-0.6,6.7-0.2,7,0.6
		c0.1,0.4-0.5,0.6-2.4,0.6c-2.8,0-3,0.3-1.7,2.6c0.8,1.4,1,1.4,4,1.4s3.1,0.1,3.9,1.5c0.9,1.7,0.9,2,0.3,2
		C207.2,45.8,206.8,45.3,206.5,44.8L206.5,44.8z"/>
	<path class="st1" d="M218.5,44.5c-0.4-0.4-1.8-0.8-3.6-0.9l-3-0.1l-1.8-3.1c-2-3.8-1.3-4.3,1-0.6c1.5,2.4,1.6,2.5,4,2.5
		c1.9,0,2.7-0.3,3.4-1.1c1-1,1-1,1,1.5c0,1.4,0,2.6-0.1,2.6C219.2,45.3,218.8,44.9,218.5,44.5L218.5,44.5z"/>
	<path class="st1" d="M177,43c0-0.4,0.3-0.8,0.5-0.8s0.9,0.4,1.3,0.8c0.7,0.6,0.6,0.8-0.5,0.8C177.5,43.8,177,43.5,177,43z"/>
	<path class="st1" d="M192.4,41.5c-2.5-4-2.5-3.8-0.8-6.6l1.5-2.6l-1.4-2.3c-1.3-2.3-1.3-2.3-4-2.3c-2.3,0-2.9,0.2-3.5,1.1
		c-1.4,1.9-6.3,10.4-6.3,10.9c0,0.3-0.2,0.4-0.5,0.4s-0.5,0.4-0.7,1c-0.1,0.6-0.6,1-1.1,1c-0.8,0-0.8-0.1,0-0.9
		c0.5-0.5,0.9-1.1,0.9-1.3c0-0.1,2.6-4.9,5.9-10.4c3.2-5.6,8.4-14.6,11.5-19.9c3-5.3,5.9-9.8,6.1-9.8s2.9,4.1,5.8,9.2
		c2.9,5.1,4.9,9.1,4.5,9.1c-0.4,0-1.4-1.3-2.2-2.8s-1.8-2.8-2-2.8s-1.6,2.1-3,4.8c-2.5,4.4-3.5,5.6-3.5,4.1c0-0.3,1.3-2.7,2.8-5.4
		c2.7-4.6,2.8-4.8,2.2-6.6c-0.4-0.9-0.9-2.1-1.3-2.5s-1.1-1.7-1.7-2.9c-1.1-2.3-2.3-2.7-2.8-1.2c-0.1,0.6-2.4,4.6-5,9.1
		c-2.6,4.4-4.8,8.2-4.8,8.3s-0.6,1.3-1.5,2.6c-0.8,1.4-1.5,2.6-1.5,2.8c0,0.1,1.1,0.3,2.5,0.3c2.4,0,2.6,0.1,3.4,1.6
		c1.7,3.1,2.4,3.7,4.5,3.7c1.1,0,2-0.1,2-0.3s-1.3-2.4-2.8-5c-2.4-4.2-2.6-4.9-2-5.8c0.4-0.6,1.9-3.1,3.3-5.6
		c1.5-2.6,2.9-4.4,3.1-4.2s-0.9,2.6-2.6,5.6l-3,5.2l1.9,3.3c3.4,6.1,4.1,7.1,5.2,6.9c0.6-0.1,1.2,0.2,1.3,0.6
		c0.2,0.4-0.9,0.6-4.3,0.6h-4.5l-1.3,2.3l-1.4,2.3l1.3,2.6C194.3,43,194.1,44.2,192.4,41.5L192.4,41.5z"/>
	<path class="st1" d="M209.1,27.4c-0.8-0.3-2.3-3.1-1.9-3.6c0.1-0.1,0.8,0.4,1.5,1.1c1,1.3,1.4,1.4,3.5,1.2c2-0.3,2.4-0.1,2.4,0.6
		c0,0.8-0.4,0.9-2.4,0.9C210.8,27.7,209.4,27.5,209.1,27.4L209.1,27.4z"/>
	<path class="st1" d="M202.5,27c0-0.6,2.7-5.2,3-5.2c0.6,0,1.1,1.1,0.6,1.4c-0.3,0.1-1,1.1-1.6,2.2C203.5,27,202.5,27.8,202.5,27z"
		/>
</g>
<g>
	<path class="st2" d="M248.4,161.5c-4-1.1-7.2-3.6-8-6.5c-0.3-0.8,0.1-1.2,2.3-2.2c2.5-1.2,2.6-1.2,3.4-0.3c2.3,2.8,6.6,3.6,8.5,1.7
		c2-2,0.8-4-3.1-5.5c-4.5-1.7-7.6-3.5-8.8-5c-1.3-1.7-2-5.1-1.4-7.3c0.5-1.9,2.8-4.4,5-5.4c2.8-1.3,7.7-1.3,10.1,0
		c2.4,1.2,5.3,4.3,5,5.1c-0.1,0.4-1.3,1.2-2.5,1.9l-2.2,1.2l-1.3-1.3c-2.6-2.6-7.4-2.1-7.4,0.9c0,1.6,0.5,1.9,5.5,4
		c7,3,9.3,5.4,9.1,10c-0.1,4.5-3.4,7.9-8.8,8.8c-1.6,0.3-3,0.5-3,0.5C250.7,162.2,249.7,161.8,248.4,161.5L248.4,161.5z"/>
	<path class="st2" d="M273.9,161.3c-3.9-0.7-4.5-2.1-4.9-10.5l-0.3-6.8h-1.5c-1.5,0-1.5,0-1.6-2.9l-0.1-2.9l1.6-0.1
		c1.6-0.1,1.6-0.2,1.8-2.7l0.1-2.5l3.4,0.1l3.4,0.1l0.1,2.6l0.1,2.6h2.5h2.5l-0.1,2.9l-0.1,2.9h-2.4l-2.4,0l0.1,5.5l0.1,5.5l2.4,0.1
		l2.4,0.1v2.7c0,2.1-0.2,2.8-0.9,3C278.3,161.5,275.7,161.6,273.9,161.3L273.9,161.3z"/>
	<path class="st2" d="M290.7,161.5c-1.9-0.5-5.1-3.6-5.7-5.6c-0.3-1-0.5-5.4-0.5-9.7v-7.9h3.5h3.5v7.5c0,4.1,0.2,8,0.5,8.5
		c0.7,1.4,2.8,1.6,4.8,0.7c2.8-1.3,3.2-2.8,3.2-10.2v-6.5h3.5h3.5v11.5v11.5h-3.5H300v-1.5v-1.5l-2.1,1.5
		C295.7,161.3,292.9,161.9,290.7,161.5L290.7,161.5z"/>
	<path class="st2" d="M216,160.7c0-0.3,0.4-0.9,0.8-1.4c0.5-0.5,0.6-0.9,0.4-1c-0.3-0.1-0.4-2.5-0.3-5.5c0.1-4.5,0-5.4-0.7-5.9
		c-0.5-0.4-0.7-0.9-0.5-1.3c0.2-0.3,0.2-0.5,0-0.5c-1,0.3-2.1-0.8-2.1-1.8c0-0.8,0.1-0.9,0.5-0.4s0.5,0.5,0.8-0.4
		c0.3-0.9,0.6-1,1.6-1c1,0.1,1.4-0.1,1.5-0.7c0.1-0.6-0.2-0.8-1.4-0.8c-0.8,0-1.9-0.4-2.3-0.8c-1-1-0.6-1.6,0.6-1.1
		c0.5,0.3,1.3,0.4,1.8,0.3c1.5-0.2,3.8,1.5,5,3.7c1,1.9,1.1,2.7,1.3,10.5l0.2,8.4h-2.3c-1.4,0-2.4-0.3-2.5-0.6
		c-0.2-0.5-0.3-0.5-0.3,0C218,161.4,216,161.4,216,160.7L216,160.7z"/>
	<path class="st2" d="M315.4,159.4c-2.6-2-4-4.6-4.3-8.5c-0.4-5.1,1.4-8.6,5.6-11.3l1.5-0.9l-0.3,2.5c-0.2,1.5-0.1,2.5,0.1,2.5
		c0.3,0,0.5-0.5,0.5-1c0-0.9,0.4-1,2-1c3.4,0,5,0.5,5,1.5c0,0.8-0.4,1-2.2,1c-1.6,0-2.6,0.4-3.6,1.2c-1.5,1.3-3,4.9-2.1,5.2
		c0.3,0.1,0.5,0.6,0.5,1.1s0.8,1.6,1.8,2.5s1.8,1.6,1.8,1.8s-0.6,0.3-1.5,0.3c-1.4,0-1.5,0.1-1.5,1.5c0,0.9-0.2,1.5-0.5,1.5
		s-0.5,0.3-0.6,0.7C317.3,160.5,316.8,160.4,315.4,159.4L315.4,159.4z"/>
	<path class="st2" d="M210.8,143.6c-0.2-0.5-0.1-0.8,0.1-0.8c0.3,0,0.8-0.1,1.3-0.3c0.5-0.2,0.8,0,0.8,0.6c0,0.6-0.1,0.7-0.3,0.3
		c-0.2-0.5-0.4-0.5-0.9,0.2C211.2,144.3,211.1,144.3,210.8,143.6L210.8,143.6z"/>
	<path class="st2" d="M212.5,140.8c0-0.3,0.4-0.5,0.8-0.5s0.8,0.3,0.8,0.5c0,0.3-0.4,0.5-0.8,0.5S212.5,141.1,212.5,140.8z"/>
	<path class="st2" d="M209,139.3c1-0.6,3.1-0.6,2.8,0c-0.1,0.3-1,0.5-1.9,0.5C208.6,139.8,208.4,139.6,209,139.3z"/>
	<path class="st2" d="M201.4,106.9c-2.4-0.3-1.5-1.1,1.1-1.1c1.6,0,2.5,0.2,2.5,0.6c0,0.3,0.5-0.3,1.1-1.3c1.3-2.2,2-2.4,1.6-0.6
		l-0.2,1.3h7.8c4.3,0,7.8-0.1,7.8-0.4c0-0.3-0.5-1.1-1-1.9c-0.5-0.8-1-1.8-1-2.1c0-1.4,1-0.6,2.4,1.9l1.4,2.5h6.1
		c5.2,0,6.1,0.1,6.1,0.8c0,0.6-1.9,0.8-17.1,0.6C210.4,107.1,202.1,107,201.4,106.9z"/>
	<path class="st2" d="M208.6,101.6c-0.4-0.7,0.1-0.9,2.9-1.1c2.9-0.1,5.3,0.4,4,0.9C214.2,101.9,208.9,102,208.6,101.6z"/>
	<path class="st2" d="M199.2,101.2c0-0.4,0.6-0.7,1.2-0.8c1-0.1,1-0.1,0.5,0.6c-0.4,0.4-0.8,0.5-1,0.2c-0.2-0.4-0.5-0.3-0.6,0.1
		C199.1,101.6,199.1,101.6,199.2,101.2z"/>
	<path class="st2" d="M227,101.3c0-0.6,1.7-1.1,3.6-1.1c2.6,0.1,2.8,0.1,4.2-2.5l1.4-2.5h3.6h3.6l0,1.4c0,0.8-0.1,1.1-0.3,0.8
		c-0.1-0.4-1.3-0.6-3.2-0.6h-3l-1.5,2.5l-1.5,2.5h-3.5C228.5,101.8,227,101.6,227,101.3z"/>
	<path class="st2" d="M202.6,100.8c-0.5-0.4-0.5-0.5,0.1-0.8c1.3-0.5,1.8-0.4,1.5,0.4C203.8,101.4,203.5,101.4,202.6,100.8z"/>
	<path class="st2" d="M204.3,97.6c0.1-0.4,0.6-0.6,1-0.4c0.9,0.3,0.5,1.1-0.5,1.1C204.3,98.3,204.1,98,204.3,97.6z"/>
	<path class="st2" d="M218,96c0-0.5,0.6-0.7,2.5-0.7c1.4,0,2.5-0.1,2.5-0.3c0-0.2-0.5-1.1-1-2c-1-1.6-1.2-1.7-3.7-1.7h-2.7l-1.4,2.5
		c-0.9,1.5-1.8,2.5-2.3,2.5c-0.8,0-0.5-0.5,1-2.9c1-1.6,2-3.1,2.4-3.3c0.3-0.2,1.8-0.4,3.2-0.4c2.6,0,2.6,0,4.2-2.5
		c0.9-1.4,1.7-2.5,1.9-2.5c0.2,0,1,1.1,1.8,2.5c1.5,2.6,2.1,2.9,5.4,2.6c1.6-0.1,2-0.4,3.3-2.6c1.3-2.4,2.1-3.1,2.1-1.9
		c0,0.3-0.8,1.8-1.6,3.3l-1.6,2.7h-3.3h-3.3l-1.2-2.3c-0.6-1.3-1.4-2.3-1.5-2.3s-0.8,0.9-1.3,1.9c-1,1.7-1,1.9-0.3,3.4
		c1.5,2.9,2.1,3.3,5.3,3.3c2.1,0,3,0.1,2.8,0.6c-0.1,0.4-2,0.6-6.5,0.7C219.1,96.7,218,96.5,218,96L218,96z"/>
	<path class="st2" d="M204,93c-0.6-1-1-1.9-0.9-2.1c0.1-0.1,0.7,0.6,1.3,1.6c0.6,1,1,1.9,0.9,2.1C205.2,94.7,204.6,94,204,93z"/>
	<path class="st2" d="M208.8,90.8c-0.2-0.3,0.2-1.4,0.9-2.5c0.7-1.1,1.1-2.1,1-2.3c-0.2-0.1-1.6-0.3-3.3-0.3s-2.9-0.2-2.9-0.5
		s1.5-0.5,3.6-0.5h3.6l1.4-2.3l1.4-2.3l-4.5-7.9c-4.8-8.3-6.7-12.1-6.4-12.4c0.1-0.1,0.6,0.6,1.1,1.4c0.5,0.9,1.1,1.9,1.5,2.4
		c0.4,0.4,1,1.4,1.4,2.1c1,1.8,1.5,1.8,2.5,0.4c1.1-1.6,1-2.7-0.5-5.3c-1.4-2.4-1.1-3.8,0.3-1.7c2.2,3.4,2.3,3.4,3.5,1.4l1.1-1.8
		L213,56c-1-1.6-1.4-2.9-1-3c0.5-0.4,3.5,4.4,3.5,5.6c0,0.4-1.3,2.9-2.8,5.4c-1.5,2.6-2.8,4.9-2.8,5.1s1.3,2.6,2.8,5.2
		c1.5,2.6,2.8,5.1,2.8,5.6s-0.5,1.6-1,2.4c-0.5,0.9-1,1.6-1,1.9c0,0.2,1,0.4,2.2,0.4c2.1,0,2.3-0.1,3.6-2.4l1.4-2.4l-1.4-2.4
		c-0.7-1.3-1.3-2.7-1.3-3.1c0-0.4,1.1-2.6,2.5-5c1.4-2.4,2.5-4.4,2.5-4.6c0-0.1-1-0.3-2.2-0.3c-2.1,0-2.3,0.1-3.6,2.5
		c-0.8,1.4-1.7,2.5-2,2.5c-0.5,0-0.1-0.9,0.9-2.9c0.9-1.6,1.7-3,1.8-3.1c0.3-0.4,6.8-0.4,7-0.1c0.1,0.2-1.1,2.8-2.8,5.7l-3,5.3
		l1.5,2.6l1.5,2.6l-1.6,2.7l-1.6,2.8l-3.1,0.1c-2.6,0.1-3.2,0.4-3.8,1.3c-0.4,0.6-1.1,1.9-1.6,2.8C209.5,90.6,209,91.1,208.8,90.8
		L208.8,90.8z"/>
	<path class="st2" d="M227,80.5c-1.6-2.9-3-5.5-3-5.8c0-0.3,1.3-2.7,2.8-5.4c3-5.2,3.1-6.1,1.3-8.5c-0.8-1.1-1.5-1.3-4.1-1.5
		l-3.1-0.3l-3-5.1l-3-5.1h-3.1h-3.2l-1-2c-1.8-3.4-1-4.3,0.9-1.1c0.9,1.6,1.4,1.9,2.5,1.9c4.8-0.1,4.6-0.3,7.8,5.1
		c2.2,3.9,3.1,5,4,5.1c0.6,0.1,2,0.1,3,0.1c1.9,0.1,2.1,0.3,3.7,3l1.8,3l-1.1,2c-0.5,1.1-1,2.2-1,2.4c0,0.2,2.1,0.4,4.8,0.4
		s4.8-0.1,4.8-0.2c0-0.1-3-5.4-6.6-11.6c-3.6-6.3-7.5-12.8-8.4-14.5c-1-1.8-1.9-3.1-2-3.1c-0.2,0-0.9,0.8-1.5,1.8l-1.1,1.8l3.1,5.3
		c1.8,2.9,3,5.4,2.8,5.6c-0.5,0.5-1.8-1.3-4.5-6.1c-1.9-3.4-2.5-4.2-3.3-3.9c-1.1,0.4-2.9-0.2-2.9-0.9c0-0.3,0.5-0.4,1.3-0.4
		s1.3,0.3,1.3,0.6c0,0.9,1.6-0.9,3-3.3l1.3-2.3l-2.9-4.8c-2.7-4.5-3-4.8-4.9-5.1c-2.2-0.4-2.8-1.3-0.8-1.3c0.7,0,1.3-0.3,1.3-0.6
		s-0.9-2.1-2-3.9c-3.2-5.5-3.6-6.6-3-6.6c0.4,0,0.9,0.4,1.1,1c0.3,0.6,2,3.6,3.9,6.6c1.8,3.1,3.9,6.8,4.7,8.1
		c0.8,1.4,3.2,5.6,5.5,9.5c3.7,6.3,14.2,24.4,17,29.4c1.1,2.1,0.7,3.3-0.6,1.5c-0.8-1-1.3-1.1-6.1-1.1c-2.9,0-5.5,0-5.9,0
		c-0.7,0.1-2.6,3.3-2.6,4.5c0,0.4,1.3,2.9,2.8,5.5s2.8,4.9,2.8,5.1C231,86.7,229.8,85.2,227,80.5L227,80.5z"/>
	<path class="st2" d="M240.8,83c-0.5-0.6-0.8-1.4-0.8-1.8c0-0.5-0.6-0.6-4.4-0.6c-2,0-2.3-0.1-3.9-2.6c-2.5-4-2.4-4.4,1.6-4.1
		c2.1,0.1,3.4,0.4,3.5,0.8c0.1,0.4-0.5,0.6-2.4,0.6c-1.4,0-2.5,0.1-2.5,0.4c0,0.2,0.5,1.1,1,2c1,1.5,1.1,1.6,4,1.6h3l1.3,2.2
		c0.7,1.3,1.3,2.4,1.3,2.5C242.5,84.7,241.5,84.2,240.8,83L240.8,83z"/>
	<path class="st2" d="M204.5,55.5c0-0.3,0.3-0.8,0.5-1.1c0.4-0.4,0.2-1.1-0.8-2.8c-1.4-2.4-1.5-2.9-0.9-2.9c0.5,0,3,3.7,3,4.4
		C206.4,53.8,204.5,56.1,204.5,55.5L204.5,55.5z"/>
	<path class="st2" d="M211.6,42.9c-0.2-0.5-1-2-1.8-3.3c-0.8-1.4-1.1-2.4-0.8-2.3s1,0.9,1.5,1.9c0.5,0.9,1,1.9,1.4,2.1
		c0.3,0.3,0.4,0.8,0.2,1.1c-0.1,0.4,0.2,0.8,0.7,0.9c0.9,0.2,0.9,0.3,0,0.3C212.3,43.7,211.8,43.3,211.6,42.9L211.6,42.9z"/>
	<path class="st2" d="M213.4,35.5l-1.5-2.8h-5.2c-4.3,0-5.2-0.1-5.2-0.8c0-0.6,0.8-0.8,5.3-0.6c3.6,0.1,5.5,0.4,6,0.9
		c1.3,1.4,3.3,5.4,2.8,5.6C215.2,38.1,214.3,37,213.4,35.5L213.4,35.5z"/>
	<path class="st2" d="M209.1,27.4c-0.4-0.1-1.1-1.1-1.8-2.2c-1.3-2.3-1.5-2.4-2.3-0.8c-0.5,1-0.5,1-0.4-0.4c0.3-3.4,1.7-3.6,3-0.4
		c0.5,1.3,1.1,2.3,1.3,2.3c0.2,0,0.5,0.4,0.6,1s0.2,1,0.2,0.9C209.8,27.7,209.4,27.6,209.1,27.4z"/>
	<path class="st2" d="M204.7,10c-0.4-0.7-1.1-1.8-1.5-2.5c-0.5-0.8-0.6-1.6-0.4-2c0.3-0.6,0.8,0,2,2.3c1.8,3.3,1.8,3.4,1.1,3.4
		C205.7,11.3,205.2,10.7,204.7,10z"/>
</g>
<g>
	<path class="st3" d="M384.8,161.7c-2.6-0.5-4.5-1.6-6-3.5c-1.9-2.1-1.5-3,1.4-3.9c2.4-0.6,2.5-0.6,3.8,0.6c1.5,1.5,3.6,1.7,4.5,0.5
		c1-1.3,0.2-2.1-3.1-3.2c-2.3-0.8-3.8-1.6-5.2-3.1c-1.8-1.8-2-2.3-2-4.5c0-2,0.3-2.7,1.5-4c3.7-3.9,10.9-3.5,14.1,0.7
		c0.7,0.9,1.2,1.9,1.2,2.1s-1.2,0.8-2.7,1.1c-2.5,0.5-2.8,0.5-4-0.5c-1-0.9-1.5-1-2.4-0.5c-1.8,1-0.8,2.1,3.1,3.5
		c4.7,1.8,6.4,3.4,6.8,6.4c0.3,2.5-0.8,4.8-3,6.3C390.8,161.3,387,162.1,384.8,161.7L384.8,161.7z"/>
	<path class="st3" d="M319,161.3c-1-0.3-2.4-1.1-3.1-2.1c-0.8-0.9-1.6-1.6-1.9-1.5c-0.3,0-0.5-0.1-0.5-0.5c0-0.3,0.5-0.5,1-0.3
		c0.9,0.2,1,0,0.8-1.4c-0.2-2.1-0.8-3.8-1.3-3.8c-0.3,0-0.5-0.4-0.5-0.8c0-0.5,0.3-0.6,1-0.5c0.9,0.3,1,0.1,0.8-1.1
		c-0.3-1.5-1-2.1-2.4-2.1c-0.5,0-0.8,0.2-0.5,0.6c0.2,0.4,0.1,0.4-0.2,0.2c-0.4-0.2-0.6-0.7-0.6-1.1c0-0.6,0.4-0.7,2.3-0.5
		c2.1,0.4,2.3,0.3,2.3-1c0-0.3-0.5-0.4-1.1-0.3c-0.6,0-0.8,0-0.3-0.1c1-0.4,1.5-2.5,0.9-3.7c-0.5-0.8-0.4-1,0.3-0.6
		c0.5,0.2,0.8,0.1,0.5-0.2c-0.2-0.3,0.5-0.9,1.5-1.4c2.4-1.1,7.7-0.9,9.1,0.4c1,0.9,1,0.9,1.1-4.1l0.1-5.1l3.4-0.1l3.4-0.1v15.7
		v15.6h-3.5c-2.8,0-3.5-0.1-3.5-0.8s-0.3-0.6-1.9,0.3C324.2,161.8,322,162,319,161.3L319,161.3z M326.8,154c2.5-2.9,1.8-7.8-1.4-9.4
		c-2.5-1.2-5.8-1.8-5.3-0.9c0.3,0.4,0.1,0.9-0.4,1.2c-1.7,1.3-2.5,3.3-2.2,5.3c0.2,1.5,0.1,2-0.3,2c-0.4,0-0.1,0.2,0.5,0.5
		c0.6,0.3,1.1,0.7,1.1,1c0,1,3.1,2,5,1.7C324.9,155.4,326.2,154.7,326.8,154z"/>
	<path class="st3" d="M357.2,160.6c-9-4.2-9-16.9,0-21.1c8.1-3.8,17.3,1.8,17.3,10.6c0,3.5-1,5.7-3.4,8.1
		C367.3,161.9,362,162.8,357.2,160.6z M364.8,155c2.2-0.9,3.4-3.5,3-6.3c-0.7-4.1-5.5-5.9-8.6-3.2c-2.9,2.5-2.4,7.7,0.9,9.4
		C362.1,156,362.5,156,364.8,155z"/>
	<path class="st3" d="M339.5,149.8v-11.5h3.5h3.5v11.5v11.5H343h-3.5V149.8z"/>
	<path class="st3" d="M312.3,155.3c-0.3-1.2-0.2-1.8,0.3-2.1c0.9-0.5,0.9-0.5,0.5,1.8l-0.4,2L312.3,155.3L312.3,155.3z"/>
	<path class="st3" d="M313,143.4c0-0.5,1.3-2.1,1.6-2.1c0.1,0,0,0.5-0.3,1.3C313.8,143.7,313,144.2,313,143.4z"/>
	<path class="st3" d="M339.7,135.6c-0.1-0.4-0.2-1.8-0.1-3.1l0.1-2.4l2.8,0.1c1.5,0.1,3,0.1,3.4,0.1c0.4,0.1,0.6,1,0.6,3.1v3h-3.3
		C340.9,136.3,339.9,136.1,339.7,135.6L339.7,135.6z"/>
	<path class="st3" d="M234.6,106.9c-2.5-0.5-0.9-1.1,2.9-1.1c2.2,0,4-0.1,4-0.2c0-0.1-0.6-1.2-1.3-2.5c-1.8-3.3-0.4-3.1,1.5,0.2
		l1.5,2.5h5.1c2.9,0,5.1-0.1,5.1-0.3c0-0.2-1-2.2-2.4-4.5l-2.4-4.1l-2.1-0.1c-1.2,0-2.1,0.2-2.1,0.4c0,0.3,0.5,1.3,1,2.3
		c0.6,1,1,1.9,0.8,2.1c-0.5,0.5-1.6-0.8-2.5-2.9c-0.6-1.3-1.4-2.1-2.1-2.3c-2.5-0.6-1-1.2,3.3-1.2h4.5l2.9,5.3l3,5.3h2.4
		c1.3,0,2.4-0.1,2.4-0.2c0-0.1-1.1-2-2.4-4.1c-2.6-4.1-5.9-10-7.7-13.5l-1.1-2.1h-2.9c-2.9,0-2.9,0-3.9,1.9l-1,2l2.6,0.1
		c3.5,0.2,3.1,1.1-0.5,1.3c-4.4,0.3-4.5,0.1-2.8-3.1l1.5-2.7l-1-2.4c-1.4-3.3-1.3-3.4,0.5-0.6c1.5,2.2,1.7,2.4,3.8,2.4
		c1.2,0,2.2-0.2,2.2-0.4s-1.7-3.3-3.8-6.8c-2-3.6-3.8-6.6-3.8-6.9c0-0.4-0.6-0.6-3.8-0.7c-3.3-0.2-3.8-0.3-3.8-0.8
		c0-0.8,5.4-0.6,5.6,0.1c0.1,0.3,0.3,0,0.3-0.8c0-0.8-0.1-1.4-0.4-1.6c-0.3-0.1-0.8-0.9-1.2-1.6c-0.4-0.8-1.5-2.9-2.5-4.9
		c-1-1.9-1.4-2.9-0.8-2.3c0.5,0.7,1.3,1.9,1.6,2.6c0.4,0.8,0.8,1.4,1,1.4c0.3,0,0.4,0.4,0.4,0.8s0.1,0.8,0.4,0.8
		c0.2,0,0.6,0.8,1,1.6c0.4,0.9,1.1,2.1,1.5,2.6c0.5,0.6,2.5,3.9,4.5,7.5c2,3.6,4.7,8.3,6,10.5c10.6,18,11.8,20.1,11.3,20.6
		C260.9,107,236.4,107.2,234.6,106.9L234.6,106.9z"/>
	<path class="st3" d="M232.5,101.5c0-0.4,2-2.3,2.5-2.3c0.3,0,0.1,0.6-0.3,1.3C234,101.6,232.5,102.3,232.5,101.5z"/>
	<path class="st3" d="M235.7,86.4c0.4-0.9,0.9-1.6,1-1.6c0.5,0,0.2,0.8-0.8,2l-1,1.3L235.7,86.4z"/>
	<path class="st3" d="M234.5,74.7c0-0.6,0.4-0.9,1.1-0.9c0.8,0,0.9,0.1,0.4,0.3c-0.4,0.1-0.9,0.6-1.1,0.9
		C234.6,75.3,234.5,75.2,234.5,74.7z"/>
</g>
</svg>
