<?xml version="1.0" encoding="utf-8"?>
<!-- Generator: Adobe Illustrator 18.0.0, SVG Export Plug-In . SVG Version: 6.00 Build 0)  -->
<!DOCTYPE svg PUBLIC "-//W3C//DTD SVG 1.1//EN" "http://www.w3.org/Graphics/SVG/1.1/DTD/svg11.dtd">
<svg version="1.1" id="Layer_1" xmlns="http://www.w3.org/2000/svg" xmlns:xlink="http://www.w3.org/1999/xlink" x="0px" y="0px"
	 viewBox="29 170.5 361.3 317" enable-background="new 29 170.5 361.3 317" xml:space="preserve">
<g>
	<linearGradient id="SVGID_1_" gradientUnits="userSpaceOnUse" x1="28.9928" y1="413.7087" x2="130.2892" y2="413.7087">
		<stop  offset="0" style="stop-color:#000000"/>
		<stop  offset="1" style="stop-color:#000000"/>
	</linearGradient>
	<path stroke="url(#SVGID_1_)" stroke-miterlimit="10" d="M29.6,484.9c-0.6-1.3,2.9-7.1,43.8-78.6c11.3-19.3,23.8-41.6,28.4-49.6
		c4.5-8.1,9-14.5,10.3-14.5c1.6,0,0.3,2.6-2.9,8.4c-14.5,25.8-21.9,39-21.9,40.3c0,1,1.6,4.2,3.9,7.1c3.2,5.5,4.5,5.8,10.3,5.8h6.8
		l-3.9-6.4c-4.5-7.7-4.5-8.1-1.6-8.1c1,0,4.2,4.2,6.8,8.4c5.2,10,5.2,10-7.4,10.3c-7.4,0-9.3-1.3-14.5-8.4l-2.6-3.9l-2.9,3.9
		c-4.2,4.8-3.9,7.1,0.6,14.8c4.2,7.1,4.5,8.4,2.3,8.4c-1,0-2.9-2.6-4.5-5.8c-1.6-3.2-3.5-5.8-4.2-5.8c-1.6,0-14.8,22.9-14.8,25.8
		c0,1.6,1.6,5.5,3.9,8.4c4.2,6.4,4.5,8.1,2.3,8.1c-1,0-2.9-2.6-5.2-6.1c-1.9-3.2-4.5-5.5-4.8-4.8c-1.6,1.3-21.9,37.4-21.9,38.4
		c0,0.3,2.9,0.3,6.4,0.3c6.1,0,6.8-0.3,10.6-7.4c2.3-4.2,4.8-7.4,5.8-7.4c2.9,0,2.3,1.6-1.6,8.1c-1.9,2.9-3.9,5.5-3.9,6.1
		c0,0.3,6.1,1,14.2,1s14.2-0.3,14.2-1.3c0-1-1.6-3.9-2.9-7.1l-3.2-6.1l4.8-8.4l4.8-8.4h17.7h18l3.2-5.8c3.2-5.8,5.8-7.7,5.8-4.2
		c0,1-1.6,4.5-3.2,7.7l-3.2,5.8L105,454l-18.4,0.3l-3.9,7.4l-3.9,6.8l3.9,6.8c3.5,6.4,3.9,6.8,10.6,6.8c4.2,0,7.1-0.3,7.1-1
		c0-0.3-1.6-3.2-3.9-6.1c-4.2-6.1-4.5-7.7-1.6-7.7c1,0,3.2,3.2,5.5,7.1c3.5,6.8,4.2,7.1,10.6,7.4c3.9,0.3,7.1,1.3,7.1,1.6
		c0,1-1,1.6-1.6,1.6C107.6,485.6,30.2,485.2,29.6,484.9L29.6,484.9z"/>
	<linearGradient id="SVGID_2_" gradientUnits="userSpaceOnUse" x1="74.1592" y1="429.7953" x2="171.5426" y2="429.7953">
		<stop  offset="0" style="stop-color:#000000"/>
		<stop  offset="1" style="stop-color:#000000"/>
	</linearGradient>
	<path stroke="url(#SVGID_2_)" stroke-miterlimit="10" d="M153,449.8c-1.6-3.2-7.7-12.9-12.9-21.9c-5.2-9-10-16.4-10.3-16.4
		c-0.3,0-2.3,2.3-4.2,5.2l-3.2,5.2l2.9,4.8c3.5,5.5,3.9,6.8,1.6,6.8c-1,0-2.9-2.3-4.5-5.2c-2.9-4.8-3.5-5.2-11-5.2
		c-7.4,0-8.1,0.3-11,5.2c-1.6,2.6-2.9,5.5-2.9,5.5c0,0.3,3.5,1,7.7,1.3c4.2,0.3,7.7,1.3,7.7,1.6c0,1-7.7,1.6-19.3,1.6
		c-15.5,0.3-19.3,0-19-1.6c0.3-1.3,3.9-1.6,9.3-1.6h8.4l4.5-7.7l4.5-7.7h9h9l4.2-7.4c2.3-4.2,4.8-7.1,5.8-7.1
		c1.3,0.3,7.7,10.6,14.5,22.2l12.9,21.9l7.1,0.3c4.8,0.3,7.1,1.3,7.1,2.6s-1.6,1.9-7.4,1.9C156.9,455.3,156.2,454.9,153,449.8
		L153,449.8z"/>
	<linearGradient id="SVGID_3_" gradientUnits="userSpaceOnUse" x1="139.9249" y1="401.0955" x2="167.0305" y2="401.0955">
		<stop  offset="0" style="stop-color:#000000"/>
		<stop  offset="1" style="stop-color:#000000"/>
	</linearGradient>
	<path stroke="url(#SVGID_3_)" stroke-miterlimit="10" d="M145.9,405.9c-2.9-3.2-5.5-8.4-5.5-10.6c0-3.2,2.3-1.6,5.5,3.9
		c3.2,5.5,3.5,5.2,11.9,4.8c7.7-0.6,8.7-0.3,8.7,1.9s-1.6,2.6-9,2.6C150.4,408.2,147.5,407.6,145.9,405.9L145.9,405.9z"/>
	<linearGradient id="SVGID_4_" gradientUnits="userSpaceOnUse" x1="110.02" y1="369.6909" x2="130.6116" y2="369.6909">
		<stop  offset="0" style="stop-color:#000000"/>
		<stop  offset="1" style="stop-color:#000000"/>
	</linearGradient>
	<path stroke="url(#SVGID_4_)" stroke-miterlimit="10" d="M111.4,378.2c-1.6-3.2-1.3-4.8,2.9-11.3c5.5-9,6.4-10,11.6-10
		c2.6,0,4.2,1,4.2,2.3s-1.6,2.3-4.5,2.3c-3.5,0-4.8,1.3-8.1,6.4c-3.2,5.2-3.5,7.1-2.3,9.7c1.9,3.9,1.9,4.8-0.3,4.8
		C113.7,382.1,112.1,380.5,111.4,378.2z"/>
	<linearGradient id="SVGID_5_" gradientUnits="userSpaceOnUse" x1="128.2984" y1="341.8084" x2="150.9159" y2="341.8084">
		<stop  offset="0" style="stop-color:#000000"/>
		<stop  offset="1" style="stop-color:#000000"/>
	</linearGradient>
	<path stroke="url(#SVGID_5_)" stroke-miterlimit="10" d="M128.8,343.7c0.3-1.3,4.2-1.9,9.3-2.3c5.8-0.3,9-1.3,10.6-2.6
		c1.6-2.3,1.6-1.6,1.6,2.3v4.8h-11.3C131.4,345.7,128.5,345,128.8,343.7L128.8,343.7z"/>
	<linearGradient id="SVGID_6_" gradientUnits="userSpaceOnUse" x1="118.3108" y1="307.7531" x2="159.4117" y2="307.7531">
		<stop  offset="0" style="stop-color:#000000"/>
		<stop  offset="1" style="stop-color:#000000"/>
	</linearGradient>
	<path stroke="url(#SVGID_6_)" stroke-miterlimit="10" d="M119.8,326.3c6.4-12.6,23.8-40.6,24.8-40.6c1.6,0,1.6,4.2,0,5.2
		c-1,0.3-1.6,1.6-1.6,2.9c0,1.6,2.3,2.3,7.7,2.6c7.4,0.3,7.7,0.6,8.1,4.8c0.3,3.9,0,4.2-1.3,1.6c-1.6-1.9-3.9-2.6-10.3-2.6h-8.7
		l-3.9,6.8l-4.2,6.8l2.9,4.2c5.5,8.1,6.4,10.6,4.2,10.6c-1.3,0-3.2-2.3-4.8-5.2c-1.6-2.9-2.9-5.2-3.5-5.2c-0.6,0-2.6,2.6-4.5,5.8
		C122.1,329.6,116.6,332.5,119.8,326.3z"/>
</g>
<g>
	<linearGradient id="SVGID_7_" gradientUnits="userSpaceOnUse" x1="92.548" y1="476.6399" x2="102.2499" y2="476.6399">
		<stop  offset="0" style="stop-color:#000000"/>
		<stop  offset="1" style="stop-color:#000000"/>
	</linearGradient>
	<path stroke="url(#SVGID_7_)" stroke-miterlimit="10" d="M98.2,482.7c1.9-3.2,1.9-3.9,0.3-4.5c-1.3-0.3-2.3-1.6-2.3-3.2
		c0-1.3-0.6-2.3-1.6-2.3c-1,0-1.6-1.3-1.6-3.2c0-2.6,0.3-2.6,1.6-1.3c3.2,3.5,7.1,11.3,7.1,14.5c0,2.3-1,3.2-2.9,3.2
		C95.9,486.2,95.9,485.9,98.2,482.7L98.2,482.7z"/>
	<linearGradient id="SVGID_8_" gradientUnits="userSpaceOnUse" x1="106.0842" y1="405.1991" x2="249.5369" y2="405.1991">
		<stop  offset="0" style="stop-color:#000000"/>
		<stop  offset="1" style="stop-color:#000000"/>
	</linearGradient>
	<path stroke="url(#SVGID_8_)" stroke-miterlimit="10" d="M113.7,485.2c-4.2-0.3-7.1-1.3-7.1-1.6c0-1,13.2-1.3,32.2-1.3
		c17.7,0,32.2-0.3,32.2-0.6c0-0.3-1.6-3.2-2.9-5.8l-2.9-5.2h-26.8c-15.8,0-27.4-0.6-27.7-1.6c-1.6-2.6,5.8-3.2,30.9-2.6l24.5,0.3
		l4.8,7.7l4.8,7.7h7.7c7.7,0,8.1-0.3,11.6-6.8l4.2-6.8l-7.7-13.5c-4.5-7.7-8.1-14.2-8.1-14.5c-0.3-0.3-4.8-1.3-9.7-1.6l-8.7-1
		l-4.8-8.1c-5.2-8.4-5.8-10.3-3.5-10.3c1,0,3.2,3.2,5.5,7.4l4.2,7.7l8.7-0.3l8.7-0.3l7.4-12.6l7.4-12.6l-5.5-1
		c-6.8-1.3-8.1-0.3-12.9,8.1c-1.9,3.5-4.5,6.4-5.2,6.4c-2.3,0-1.6-1.3,2.3-8.1l3.9-6.4h-7.4c-8.7,0-16.4-1.6-16.4-3.2
		c0-1,1.6-1.3,3.5-1.3c1.6,0,4.5-1.3,5.2-2.3c1.9-2.3,23.5-39,23.5-40c0-0.3-6.1-0.6-14.2-0.6c-14.8,0-16.1,1-11.3,7.4
		c2.9,4.2,3.9,7.4,1.6,7.4c-1,0-3.2-3.2-5.5-7.4c-4.2-7.1-4.2-7.4-11.3-7.4s-7.1,0-4.8,3.2c5.5,8.4,14.5,24.5,14.5,25.8
		c0,4.2-2.9,1-9.3-10.6c-4.2-6.8-8.1-13.5-9-15.5c-1.6-2.6-3.2-3.2-9.7-3.2c-4.2,0-8.4-0.6-9.7-1.3c-2.6-1.6,7.7-3.2,20.9-2.9
		c5.8,0.3,19.3,0,30.9,0l20.6-0.3l8.4-15.5c4.8-8.4,8.7-15.5,9.7-15.5c0.6,0,2.6,2.6,4.5,5.8c1.6,3.2,3.9,5.8,4.5,5.8
		c1.6,0,6.8-7.7,6.4-10.6c0-1.6,1-2.6,1.6-2.6c2.9,0,2.6,3.5-1.6,11.6l-4.2,7.4l4.8,8.7c8.1,14.5,1.6,10.3-7.1-5.2
		c-4.5-7.7-8.7-13.5-9.3-13.5c-1.3,0.3-27.4,44.2-27.4,45.8c0,0.3-2.9,5.5-6.8,11.3c-4.8,7.7-7.7,12.9-7.7,13.5c0,0.3,15.5,1,34.2,1
		c31.3,0,40.6,1.3,33.8,3.5c-1.6,0.6-9.7,1-18.4,1s-16.4,0.3-17.4,1.3c-1,1-4.5,7.1-8.7,14.5l-7.4,12.9l6.8,11.9
		c9.3,17.4,10.3,17.7,19.3,17.4c7.4-1,7.7-1.3,11.3-7.1l3.2-6.8l-4.2-7.1c-4.5-8.1-4.8-8.7-2.9-8.7c0.6,0,3.2,3.2,5.8,7.4
		c4.5,7.4,4.8,7.4,11.9,7.4c5.2,0,8.1-1,9.3-2.3c1.6-2.3,1.6-2.3,2.6-0.3c1.6,4.2-2.9,7.1-11.9,7.1h-8.4l-4.2,7.4l-4.2,7.4h-9
		c-8.7,0-9,0.3-12.2,5.2c-1.6,2.6-3.2,5.5-3.2,5.8c0,0.3,7.1,1,15.8,1h15.8l4.2-7.4c2.3-4.2,4.5-7.7,5.2-7.7c7.1-1.3,9-1,9,1.3
		c0,1.3-1.6,1.9-3.9,1.9c-2.6,0-4.5,1.6-6.8,4.8c-3.5,5.5-3.9,7.1-1,7.1c1.3,0,2.3,1.3,2.3,2.3c0,1.6-8.1,1.9-58.3,1.6
		C146.9,485.6,117.5,485.2,113.7,485.2L113.7,485.2z"/>
	<linearGradient id="SVGID_9_" gradientUnits="userSpaceOnUse" x1="160.4626" y1="460.3765" x2="184.745" y2="460.3765">
		<stop  offset="0" style="stop-color:#000000"/>
		<stop  offset="1" style="stop-color:#000000"/>
	</linearGradient>
	<path stroke="url(#SVGID_9_)" stroke-miterlimit="10" d="M178.1,462.7c-3.5-6.4-4.5-7.1-10.6-8.1c-9-1.6-8.7-4.2,1-3.5
		c7.4,0.3,7.7,1,11.6,7.1c4.2,6.4,5.2,11.6,3.2,11.6C182.6,470.1,180.4,466.9,178.1,462.7z"/>
	<linearGradient id="SVGID_10_" gradientUnits="userSpaceOnUse" x1="112.9912" y1="452.2424" x2="123.2835" y2="452.2424">
		<stop  offset="0" style="stop-color:#000000"/>
		<stop  offset="1" style="stop-color:#000000"/>
	</linearGradient>
	<path stroke="url(#SVGID_10_)" stroke-miterlimit="10" d="M114,454.3c1.3-0.3,3.2-1.6,4.8-3.2c2.9-2.6,4.8-1.6,3.5,1.6
		c-0.6,1.3-2.6,2.3-5.8,1.9C114,455.3,112.7,454.6,114,454.3L114,454.3z"/>
	<linearGradient id="SVGID_11_" gradientUnits="userSpaceOnUse" x1="117.877" y1="434.3115" x2="139.7123" y2="434.3115">
		<stop  offset="0" style="stop-color:#000000"/>
		<stop  offset="1" style="stop-color:#000000"/>
	</linearGradient>
	<path stroke="url(#SVGID_11_)" stroke-miterlimit="10" d="M134.3,448.8c-1.6-3.9-4.2-6.8-4.8-6.8c-0.6,0-1.6,1.6-2.9,3.9
		c-2.6,5.5-4.5,2.6-1.6-3.5c1.9-5.2,1.9-6.1-1.3-11.9c-1.6-3.5-4.2-7.1-4.8-7.4c-1-0.6-0.3-2.6,1.3-4.5l2.3-3.2v4.5
		c0,2.6,1.3,6.1,2.6,8.1c6.8,8.4,15.1,25.1,14.2,26.4C138.2,454.9,136.6,453,134.3,448.8L134.3,448.8z"/>
	<linearGradient id="SVGID_12_" gradientUnits="userSpaceOnUse" x1="124.8149" y1="429.9763" x2="158.8147" y2="429.9763">
		<stop  offset="0" style="stop-color:#000000"/>
		<stop  offset="1" style="stop-color:#000000"/>
	</linearGradient>
	<path stroke="url(#SVGID_12_)" stroke-miterlimit="10" d="M155.3,453.6c-1.3-1.3-1.6-2.6-1.6-3.5c0-1-1.3-2.6-2.3-3.5
		c-1.6-1.3-1.6-2.3-1.6-2.6c0.3-0.3-1.6-3.2-3.9-6.8c-2.3-3.2-4.5-6.8-4.5-7.7c0-1.3-1.3-2.6-2.3-3.9c-1-1.3-1.6-2.3-1.6-2.9
		c0.3-1,0-1.6-0.6-1.6c-1-0.3-2.6-2.9-4.5-6.1c-1.6-3.2-3.2-5.5-3.9-5.5c-3.5,0.3-3.9,0-2.3-2.6c1-1.6,2.3-2.6,2.9-2.3
		c1,0.3,5.5,8.1,10.6,17.4c11.6,20.9,12.6,21.9,13.5,24.5c0.3,1.3,1.6,3.9,3.2,5.5C159.8,455.6,158.2,456.5,155.3,453.6L155.3,453.6
		z"/>
	<linearGradient id="SVGID_13_" gradientUnits="userSpaceOnUse" x1="198.8312" y1="437.9748" x2="228.5883" y2="437.9748">
		<stop  offset="0" style="stop-color:#000000"/>
		<stop  offset="1" style="stop-color:#000000"/>
	</linearGradient>
	<path stroke="url(#SVGID_13_)" stroke-miterlimit="10" d="M203.9,445.6l-4.5-8.1l4.5-8.1l4.5-8.1l9.7-0.3c6.1-0.3,10,0.3,10,1.3
		s-3.5,1.6-8.4,1.6H211l-3.9,7.1l-3.9,7.1l4.5,7.7c4.8,8.4,5.2,9,2.6,9C209.4,453.6,206.5,449.8,203.9,445.6L203.9,445.6z"/>
	<linearGradient id="SVGID_14_" gradientUnits="userSpaceOnUse" x1="105.2354" y1="402.7258" x2="113.6532" y2="402.7258">
		<stop  offset="0" style="stop-color:#000000"/>
		<stop  offset="1" style="stop-color:#000000"/>
	</linearGradient>
	<path stroke="url(#SVGID_14_)" stroke-miterlimit="10" d="M106.9,402.7c-1.6-3.5-1.6-4.5,0.3-4.5c1.3,0,2.9,1.9,4.5,4.5
		c1.9,4.2,1.9,4.5-0.3,4.5C109.8,407.2,108.2,405.3,106.9,402.7z"/>
	<linearGradient id="SVGID_15_" gradientUnits="userSpaceOnUse" x1="128.2256" y1="389.526" x2="148.6599" y2="389.526">
		<stop  offset="0" style="stop-color:#000000"/>
		<stop  offset="1" style="stop-color:#000000"/>
	</linearGradient>
	<path stroke="url(#SVGID_15_)" stroke-miterlimit="10" d="M137.5,392.1c-8.4-14.5-10.3-18.7-7.7-18.7c0.6,0,4.5,5.5,8.1,12.9
		c4.2,7.1,8.1,13.9,9,14.8c1.3,1.3,1.6,3.2,1,4.2C146.9,406.9,144,403,137.5,392.1z"/>
	<linearGradient id="SVGID_16_" gradientUnits="userSpaceOnUse" x1="110.8833" y1="384.4093" x2="122.1617" y2="384.4093">
		<stop  offset="0" style="stop-color:#000000"/>
		<stop  offset="1" style="stop-color:#000000"/>
	</linearGradient>
	<path stroke="url(#SVGID_16_)" stroke-miterlimit="10" d="M115.3,385.3c-2.3-3.9-4.2-7.1-3.9-7.7c1.6-1.3,4.8,1.6,7.7,7.1
		C124.3,393.4,120.8,394,115.3,385.3z"/>
	<linearGradient id="SVGID_17_" gradientUnits="userSpaceOnUse" x1="131.1021" y1="343.6508" x2="140.6026" y2="343.6508">
		<stop  offset="0" style="stop-color:#000000"/>
		<stop  offset="1" style="stop-color:#000000"/>
	</linearGradient>
	<path stroke="url(#SVGID_17_)" stroke-miterlimit="10" d="M131.7,344.1c1-2.6,8.4-3.2,8.4-0.6c0,1.3-1.6,1.9-2.9,1.9
		c-1.3,0-2.9-1-2.9-1.6c0-1.3-0.6-1.3-1.6,0.3C131.7,346,131.4,346,131.7,344.1L131.7,344.1z"/>
	<linearGradient id="SVGID_18_" gradientUnits="userSpaceOnUse" x1="141.214" y1="304.8808" x2="202.8754" y2="304.8808">
		<stop  offset="0" style="stop-color:#000000"/>
		<stop  offset="1" style="stop-color:#000000"/>
	</linearGradient>
	<path stroke="url(#SVGID_18_)" stroke-miterlimit="10" d="M141.7,344.1c0-1,1.6-1.6,2.9-1.9c1.6-0.3,4.5-3.9,6.1-7.7
		c3.5-7.7,3.9-6.1-3.9-18.7c-1-1.3-1.3-3.2-0.3-3.9c1.3-1.3,4.8,2.9,8.7,10.6c2.6,4.8,2.6,5.2,0,10.6c-1.6,2.9-2.9,6.1-3.2,6.8
		c-0.3,1,2.6,1.3,6.1,1c6.1-0.3,7.4-1,10.3-6.1l3.5-5.8l-8.1-14.2c-4.5-7.7-8.7-14.5-10.3-15.5c-2.9-2.3-2.9-3.5,0.6-3.5
		c1.9,0,5.5,4.8,12.2,16.4l9.7,16.4l-3.5,5.5c-1.9,3.2-3.2,6.1-2.9,6.8s3.2,1,6.8,0.6c5.8-0.6,6.1-1.3,13.2-12.9
		c4.2-7.1,7.4-12.6,7.4-12.9c0-0.3-3.2-1-7.7-1.3l-7.7-0.3l-8.4-14.5c-4.8-8.1-8.7-15.5-9.3-16.4c-0.3-1.3,1.6-5.2,4.2-9.7
		c5.8-10,5.5-9.3,6.8-8.1c0.6,0.3-1,4.5-2.9,8.4l-4.5,7.7l7.1,12.2c10,17.4,9.7,17.4,19,16.4c4.8-0.3,8.1,0,8.7,1
		c0.6,1-3.2,8.4-8.1,17.4l-9.3,15.8l-21.6,0.3C151.1,345.4,141.7,345,141.7,344.1L141.7,344.1z"/>
	<linearGradient id="SVGID_19_" gradientUnits="userSpaceOnUse" x1="131.1661" y1="323.1915" x2="140.6301" y2="323.1915">
		<stop  offset="0" style="stop-color:#000000"/>
		<stop  offset="1" style="stop-color:#000000"/>
	</linearGradient>
	<path stroke="url(#SVGID_19_)" stroke-miterlimit="10" d="M135.9,327c-1-1.3-1.3-2.9-0.6-3.9c0.6-1.3,0.3-1.3-0.6-1
		c-1,0.3-1.6,1-1.6,0.3c0-0.3-0.3-1.6-1-2.9c-1.6-4.2,2.3-2.6,5.2,2.6c1.6,2.6,2.9,5.2,2.9,5.8C140.4,329.9,137.8,329.6,135.9,327
		L135.9,327z"/>
	<linearGradient id="SVGID_20_" gradientUnits="userSpaceOnUse" x1="217.4816" y1="317.4795" x2="226.9768" y2="317.4795">
		<stop  offset="0" style="stop-color:#000000"/>
		<stop  offset="1" style="stop-color:#000000"/>
	</linearGradient>
	<path stroke="url(#SVGID_20_)" stroke-miterlimit="10" d="M220.4,318.3c-2.9-6.1-2.9-6.8-1.3-6.8c1.6,0,7.4,9,7.4,11
		c0,0.3-1,1-1.6,1S222,321.2,220.4,318.3z"/>
	<linearGradient id="SVGID_21_" gradientUnits="userSpaceOnUse" x1="125.8246" y1="308.2698" x2="138.4961" y2="308.2698">
		<stop  offset="0" style="stop-color:#000000"/>
		<stop  offset="1" style="stop-color:#000000"/>
	</linearGradient>
	<path stroke="url(#SVGID_21_)" stroke-miterlimit="10" d="M127.5,316.4c-1.6-1.3-1.6-1.6,0-3.2c1.3-1.3,2.6-3.2,2.9-4.8
		c1.6-4.2,6.4-10.6,7.4-9c1.3,1-6.1,13.5-8.1,14.2c-0.6,0.3-1,1.6-0.3,2.6C130.4,318,130.1,318,127.5,316.4L127.5,316.4z"/>
	<linearGradient id="SVGID_22_" gradientUnits="userSpaceOnUse" x1="199.4628" y1="293.2299" x2="234.2092" y2="293.2299">
		<stop  offset="0" style="stop-color:#000000"/>
		<stop  offset="1" style="stop-color:#000000"/>
	</linearGradient>
	<path stroke="url(#SVGID_22_)" stroke-miterlimit="10" d="M229.7,303.1c-1.6-2.3-2.9-2.9-9-2.9c-4.5,0-8.7-1-10.3-1.6
		c-3.9-2.9-11.3-16.4-10.3-17.7c1.6-1.6,19.7-0.6,20.6,1.6c0.3,1.3-1.6,1.6-7.1,1.6c-8.1,0-8.7,1-4.8,7.7c2.3,4.2,2.9,4.2,11.6,4.2
		c8.7,0,9,0.3,11.3,4.5c2.6,4.8,2.6,5.8,1,5.8C232,306,230.7,304.4,229.7,303.1L229.7,303.1z"/>
	<linearGradient id="SVGID_23_" gradientUnits="userSpaceOnUse" x1="236.4003" y1="293.0684" x2="268.2301" y2="293.0684">
		<stop  offset="0" style="stop-color:#000000"/>
		<stop  offset="1" style="stop-color:#000000"/>
	</linearGradient>
	<path stroke="url(#SVGID_23_)" stroke-miterlimit="10" d="M264.8,302.2c-1.3-1.3-5.2-2.3-10.6-2.6l-8.7-0.3l-5.2-9
		c-5.8-11.3-3.9-12.6,2.9-1.6c4.5,7.1,4.8,7.4,11.6,7.4c5.5,0,8.1-1,10-3.2c2.9-2.9,2.9-2.9,2.9,4.5c0,4.2,0,7.7-0.3,7.7
		C267.1,304.4,265.8,303.5,264.8,302.2L264.8,302.2z"/>
	<linearGradient id="SVGID_24_" gradientUnits="userSpaceOnUse" x1="142.8255" y1="297.6895" x2="150.501" y2="297.6895">
		<stop  offset="0" style="stop-color:#000000"/>
		<stop  offset="1" style="stop-color:#000000"/>
	</linearGradient>
	<path stroke="url(#SVGID_24_)" stroke-miterlimit="10" d="M143.3,297.7c0-1.3,1-2.3,1.6-2.3s2.6,1.3,3.9,2.3
		c1.9,1.6,1.6,2.3-1.6,2.3C144.6,300.2,143.3,299.3,143.3,297.7z"/>
	<linearGradient id="SVGID_25_" gradientUnits="userSpaceOnUse" x1="137.2659" y1="234.3582" x2="241.9739" y2="234.3582">
		<stop  offset="0" style="stop-color:#000000"/>
		<stop  offset="1" style="stop-color:#000000"/>
	</linearGradient>
	<path stroke="url(#SVGID_25_)" stroke-miterlimit="10" d="M188.4,293.5c-7.4-11.6-7.4-11.3-2.3-19.3l4.5-7.7l-4.2-6.8
		c-3.9-6.8-3.9-6.8-11.6-6.8c-6.8,0-8.4,0.6-10.3,3.2c-4.2,5.5-18.4,30.6-18.4,31.9c0,1-0.6,1.3-1.6,1.3s-1.6,1.3-1.9,2.9
		c-0.3,1.6-1.6,2.9-3.2,2.9c-2.3,0-2.3-0.3,0-2.6c1.6-1.6,2.6-3.2,2.6-3.9c0-0.3,7.7-14.5,17.4-30.6c9.3-16.4,24.5-42.9,33.8-58.3
		C202,184.2,210.7,171,211,171s8.4,11.9,17.1,27.1c8.4,14.8,14.5,26.8,13.2,26.8c-1.3,0-4.2-3.9-6.4-8.1c-2.3-4.5-5.2-8.1-5.8-8.1
		c-0.6,0-4.8,6.1-8.7,14.2c-7.4,12.9-10.3,16.4-10.3,11.9c0-1,3.9-8.1,8.1-15.8c8.1-13.5,8.1-14.2,6.4-19.3
		c-1.3-2.6-2.6-6.1-3.9-7.4c-1.3-1.3-3.2-4.8-4.8-8.4c-3.2-6.8-6.8-8.1-8.1-3.5c-0.3,1.6-7.1,13.5-14.5,26.8
		c-7.7,12.9-14.2,24.2-14.2,24.2s-1.6,3.9-4.5,7.7c-2.3,4.2-4.5,7.7-4.5,8.1s3.2,1,7.4,1c7.1,0,7.7,0.3,10,4.8c4.8,9,7.1,11,13.2,11
		c3.2,0,5.8-0.3,5.8-1c0-0.6-3.9-7.1-8.1-14.5c-7.1-12.2-7.7-14.5-5.8-17.1c1.3-1.6,5.5-9,9.7-16.4c4.5-7.7,8.4-12.9,9-12.2
		c0.6,0.6-2.6,7.7-7.7,16.4l-8.7,15.1l5.5,9.7c10,17.7,11.9,20.9,15.1,20.3c1.6-0.3,3.5,0.6,3.9,1.6c0.6,1.3-2.6,1.6-12.6,1.6h-13.2
		l-3.9,6.8l-4.2,6.8l3.9,7.7C193.9,297.7,193.3,301.2,188.4,293.5L188.4,293.5z"/>
	<linearGradient id="SVGID_26_" gradientUnits="userSpaceOnUse" x1="231.2283" y1="246.8538" x2="254.3716" y2="246.8538">
		<stop  offset="0" style="stop-color:#000000"/>
		<stop  offset="1" style="stop-color:#000000"/>
	</linearGradient>
	<path stroke="url(#SVGID_26_)" stroke-miterlimit="10" d="M237.4,251.9c-2.3-1-6.8-9-5.5-10.6c0.3-0.3,2.3,1.3,4.5,3.2
		c2.9,3.9,4.2,4.2,10.3,3.5c5.8-1,7.1-0.3,7.1,1.6c0,2.3-1.3,2.6-7.1,2.6C242.3,252.9,238.4,252.2,237.4,251.9L237.4,251.9z"/>
	<linearGradient id="SVGID_27_" gradientUnits="userSpaceOnUse" x1="217.5972" y1="243.795" x2="229.578" y2="243.795">
		<stop  offset="0" style="stop-color:#000000"/>
		<stop  offset="1" style="stop-color:#000000"/>
	</linearGradient>
	<path stroke="url(#SVGID_27_)" stroke-miterlimit="10" d="M218.1,250.9c0-1.6,8.1-15.1,8.7-15.1c1.6,0,3.2,3.2,1.6,4.2
		c-1,0.3-2.9,3.2-4.8,6.4C221,250.9,218.1,253.2,218.1,250.9z"/>
</g>
<g>
	<linearGradient id="SVGID_28_" gradientUnits="userSpaceOnUse" x1="210.2174" y1="476.6121" x2="320.1192" y2="476.6121">
		<stop  offset="0" style="stop-color:#000000"/>
		<stop  offset="1" style="stop-color:#000000"/>
	</linearGradient>
	<path stroke="url(#SVGID_28_)" stroke-miterlimit="10" d="M214.9,485.2c-7.1-1-4.5-3.2,3.2-3.2c4.8,0,7.4,0.6,7.4,1.6
		c0,1,1.6-1,3.2-3.9c3.9-6.4,5.8-7.1,4.8-1.6l-0.6,3.9h22.9c12.6,0,22.9-0.3,22.9-1.3c0-1-1.6-3.2-2.9-5.5c-1.6-2.3-2.9-5.2-2.9-6.1
		c0-4.2,2.9-1.6,7.1,5.5l4.2,7.4h17.7c15.1,0,17.7,0.3,17.7,2.3c0,1.6-5.5,2.3-50.3,1.6C241.3,485.6,216.8,485.2,214.9,485.2z"/>
	<linearGradient id="SVGID_29_" gradientUnits="userSpaceOnUse" x1="234.9261" y1="468.2057" x2="257.3896" y2="468.2057">
		<stop  offset="0" style="stop-color:#000000"/>
		<stop  offset="1" style="stop-color:#000000"/>
	</linearGradient>
	<path stroke="url(#SVGID_29_)" stroke-miterlimit="10" d="M235.8,469.4c-1.3-1.9,0.3-2.6,8.4-3.2c8.4-0.3,15.5,1.3,11.6,2.6
		C252.3,470.4,236.8,470.7,235.8,469.4z"/>
	<linearGradient id="SVGID_30_" gradientUnits="userSpaceOnUse" x1="207.6867" y1="467.628" x2="214.9102" y2="467.628">
		<stop  offset="0" style="stop-color:#000000"/>
		<stop  offset="1" style="stop-color:#000000"/>
	</linearGradient>
	<path stroke="url(#SVGID_30_)" stroke-miterlimit="10" d="M208.4,468.5c0-1.3,1.6-1.9,3.5-2.3c2.9-0.3,2.9-0.3,1.6,1.6
		c-1.3,1.3-2.3,1.6-2.9,0.6C209.7,467.2,209.1,467.5,208.4,468.5C208.1,469.4,208.1,469.4,208.4,468.5z"/>
	<linearGradient id="SVGID_31_" gradientUnits="userSpaceOnUse" x1="289.4683" y1="460.5772" x2="338.8121" y2="460.5772">
		<stop  offset="0" style="stop-color:#000000"/>
		<stop  offset="1" style="stop-color:#000000"/>
	</linearGradient>
	<path stroke="url(#SVGID_31_)" stroke-miterlimit="10" d="M290,468.8c0-1.6,4.8-3.2,10.6-3.2c7.7,0.3,8.1,0.3,12.2-7.4l4.2-7.4
		h10.6h10.6v4.2c0,2.3-0.3,3.2-1,2.3c-0.3-1.3-3.9-1.6-9.3-1.6h-8.7l-4.5,7.4l-4.5,7.4H300C294.2,470.1,290,469.4,290,468.8z"/>
	<linearGradient id="SVGID_32_" gradientUnits="userSpaceOnUse" x1="216.7484" y1="466.2375" x2="223.9122" y2="466.2375">
		<stop  offset="0" style="stop-color:#000000"/>
		<stop  offset="1" style="stop-color:#000000"/>
	</linearGradient>
	<path stroke="url(#SVGID_32_)" stroke-miterlimit="10" d="M218.4,467.2c-1.6-1.3-1.6-1.6,0.3-2.3c3.9-1.6,5.2-1.3,4.5,1.3
		C222,469.1,221,469.1,218.4,467.2z"/>
	<linearGradient id="SVGID_33_" gradientUnits="userSpaceOnUse" x1="222.501" y1="458.1019" x2="228.13" y2="458.1019">
		<stop  offset="0" style="stop-color:#000000"/>
		<stop  offset="1" style="stop-color:#000000"/>
	</linearGradient>
	<path stroke="url(#SVGID_33_)" stroke-miterlimit="10" d="M223.3,457.8c0.3-1.3,1.6-1.6,2.9-1.3c2.6,1,1.6,3.2-1.6,3.2
		C223.3,459.8,222.6,459.1,223.3,457.8z"/>
	<linearGradient id="SVGID_34_" gradientUnits="userSpaceOnUse" x1="243.728" y1="437.5737" x2="319.7968" y2="437.5737">
		<stop  offset="0" style="stop-color:#000000"/>
		<stop  offset="1" style="stop-color:#000000"/>
	</linearGradient>
	<path stroke="url(#SVGID_34_)" stroke-miterlimit="10" d="M263.5,453c0-1.6,1.6-1.9,7.4-1.9c4.2,0,7.4-0.3,7.4-1
		c0-0.6-1.6-3.2-2.9-5.8c-2.9-4.8-3.5-4.8-11-4.8h-8.1l-4.2,7.4c-2.6,4.5-5.2,7.4-6.8,7.4c-2.3,0-1.6-1.6,2.9-8.4
		c2.9-4.8,5.8-9,7.1-9.7c1-0.6,5.2-1.3,9.3-1.3c7.7,0,7.7,0,12.2-7.4c2.6-4.2,4.8-7.4,5.5-7.4c0.6,0,2.9,3.2,5.2,7.4
		c4.5,7.7,6.1,8.4,15.8,7.7c4.8-0.3,5.8-1.3,9.7-7.7c3.9-7.1,6.1-9,6.1-5.5c0,1-2.3,5.2-4.8,9.7l-4.8,8.1H300h-9.7l-3.5-6.8
		c-1.6-3.9-4.2-6.8-4.5-6.8c-0.3,0-2.3,2.6-3.9,5.5c-2.9,4.8-2.9,5.5-1,10c4.5,8.4,6.1,9.7,15.5,9.7c6.1,0,8.7,0.3,8.1,1.6
		c-0.3,1.3-5.8,1.6-19,1.9C266.8,455.3,263.5,454.6,263.5,453L263.5,453z"/>
	<linearGradient id="SVGID_35_" gradientUnits="userSpaceOnUse" x1="219.1589" y1="443.6548" x2="226.7155" y2="443.6548">
		<stop  offset="0" style="stop-color:#000000"/>
		<stop  offset="1" style="stop-color:#000000"/>
	</linearGradient>
	<path stroke="url(#SVGID_35_)" stroke-miterlimit="10" d="M222.3,444.3c-1.6-2.9-2.9-5.5-2.6-6.1c0.3-0.3,1.9,1.6,3.9,4.8
		c1.9,3.2,2.9,5.5,2.6,6.1C225.8,449.5,224.2,447.2,222.3,444.3z"/>
	<linearGradient id="SVGID_36_" gradientUnits="userSpaceOnUse" x1="221.0345" y1="382.5172" x2="285.0097" y2="382.5172">
		<stop  offset="0" style="stop-color:#000000"/>
		<stop  offset="1" style="stop-color:#000000"/>
	</linearGradient>
	<path stroke="url(#SVGID_36_)" stroke-miterlimit="10" d="M236.5,437.9c-0.6-1,0.6-4.2,2.6-7.4c1.9-3.2,3.2-6.1,2.9-6.8
		c-0.6-0.3-4.8-1-9.7-1c-4.8,0-8.4-0.6-8.4-1.6c0-1,4.5-1.6,10.6-1.6h10.6l4.2-6.8l4.2-6.8l-13.2-23.2
		c-14.2-24.2-19.7-35.5-18.7-36.4c0.3-0.3,1.6,1.6,3.2,4.2c1.6,2.6,3.2,5.5,4.5,7.1c1.3,1.3,2.9,4.2,4.2,6.1
		c2.9,5.2,4.5,5.2,7.4,1.3c3.2-4.8,2.9-8.1-1.6-15.5c-4.2-7.1-3.2-11.3,1-4.8c6.4,10,6.8,10,10.3,4.2l3.2-5.2l-4.5-8.1
		c-2.9-4.8-4.2-8.4-2.9-8.7c1.6-1.3,10.3,12.9,10.3,16.4c0,1.3-3.9,8.4-8.1,15.8c-4.5,7.7-8.1,14.5-8.1,14.8c0,0.3,3.9,7.7,8.1,15.1
		c4.5,7.7,8.1,14.8,8.1,16.4c0,1.6-1.6,4.8-2.9,7.1c-1.6,2.6-2.9,4.8-2.9,5.5s2.9,1.3,6.4,1.3c6.1,0,6.8-0.3,10.6-7.1l4.2-7.1
		l-4.2-7.1c-1.9-3.9-3.9-8.1-3.9-9c0-1.3,3.2-7.7,7.4-14.5c4.2-6.8,7.4-12.9,7.4-13.5c0-0.3-2.9-1-6.4-1c-6.1,0-6.8,0.3-10.6,7.4
		c-2.3,4.2-4.8,7.4-5.8,7.4c-1.6,0-0.3-2.6,2.6-8.4c2.6-4.8,4.8-8.7,5.2-9c1-1.3,20-1.3,20.6-0.3c0.3,0.6-3.2,8.1-8.1,16.8
		l-8.7,15.5l4.5,7.7l4.5,7.7l-4.8,8.1l-4.8,8.1l-9,0.3c-7.7,0.3-9.3,1.3-11.3,3.9c-1.3,1.6-3.2,5.5-4.8,8.1
		C238.7,437.2,237.1,438.8,236.5,437.9L236.5,437.9z"/>
	<linearGradient id="SVGID_37_" gradientUnits="userSpaceOnUse" x1="230.1678" y1="319.3843" x2="334.857" y2="319.3843">
		<stop  offset="0" style="stop-color:#000000"/>
		<stop  offset="1" style="stop-color:#000000"/>
	</linearGradient>
	<path stroke="url(#SVGID_37_)" stroke-miterlimit="10" d="M290,407.6c-4.8-8.4-8.7-16.1-8.7-17.1s3.9-8.1,8.1-15.8
		c8.7-15.1,9-17.7,3.9-24.8c-2.3-3.2-4.5-3.9-11.9-4.5l-9-1l-8.7-14.8l-8.7-14.8h-9h-9.3l-2.9-5.8c-5.2-10-2.9-12.6,2.6-3.2
		c2.6,4.8,4.2,5.5,7.4,5.5c14.2-0.3,13.5-1,22.9,14.8c6.4,11.3,9,14.5,11.6,14.8c1.6,0.3,5.8,0.3,8.7,0.3c5.5,0.3,6.1,1,11,8.7
		l5.2,8.7l-3.2,5.8c-1.6,3.2-2.9,6.4-2.9,7.1s6.1,1.3,14.2,1.3c8.1,0,14.2-0.3,14.2-0.6c0-0.3-8.7-15.8-19.3-34.2
		c-10.6-18.4-21.9-37.4-24.5-42.5c-2.9-5.2-5.5-9-5.8-9c-0.6,0-2.6,2.3-4.5,5.2l-3.2,5.2l9,15.5c5.2,8.4,8.7,15.8,8.1,16.4
		c-1.6,1.6-5.2-3.9-13.2-17.7c-5.5-10-7.4-12.2-9.7-11.3c-3.2,1.3-8.4-0.6-8.4-2.6c0-1,1.6-1.3,3.9-1.3c2.3,0,3.9,1,3.9,1.6
		c0,2.6,4.8-2.6,8.7-9.7l3.9-6.8l-8.4-14.2c-8.1-13.2-8.7-14.2-14.5-14.8c-6.4-1.3-8.1-3.9-2.3-3.9c1.9,0,3.9-1,3.9-1.6
		c0-1-2.6-6.1-5.8-11.3c-9.3-16.1-10.6-19.3-8.7-19.3c1.3,0,2.6,1.3,3.2,2.9c1,1.6,5.8,10.6,11.3,19.3c5.2,9,11.3,20,13.9,23.8
		c2.3,4.2,9.3,16.4,16.1,27.7c11,18.4,41.6,71.5,50,86.1c3.2,6.1,1.9,9.7-1.6,4.5c-2.3-2.9-3.9-3.2-17.7-3.2c-8.4,0-16.1,0-17.4,0
		c-1.9,0.3-7.7,9.7-7.7,13.2c0,1.3,3.9,8.4,8.1,16.1c4.5,7.7,8.1,14.5,8.1,14.8C301.6,425.9,298,421.4,290,407.6L290,407.6z"/>
	<linearGradient id="SVGID_38_" gradientUnits="userSpaceOnUse" x1="298.3624" y1="403.6549" x2="334.9114" y2="403.6549">
		<stop  offset="0" style="stop-color:#000000"/>
		<stop  offset="1" style="stop-color:#000000"/>
	</linearGradient>
	<path stroke="url(#SVGID_38_)" stroke-miterlimit="10" d="M330.3,415c-1.6-1.6-2.3-4.2-2.3-5.2c0-1.6-1.6-1.6-12.9-1.6
		c-5.8,0-6.8-0.3-11.3-7.7c-7.4-11.6-7.1-12.9,4.8-11.9c6.1,0.3,10,1.3,10.3,2.3c0.3,1.3-1.6,1.6-7.1,1.6c-4.2,0-7.4,0.3-7.4,1.3
		c0,0.6,1.6,3.2,2.9,5.8c2.9,4.5,3.2,4.8,11.6,4.8h8.7l3.9,6.4c1.9,3.9,3.9,7.1,3.9,7.4C335.4,420.1,332.5,418.5,330.3,415
		L330.3,415z"/>
	<linearGradient id="SVGID_39_" gradientUnits="userSpaceOnUse" x1="219.0368" y1="324.7419" x2="229.8774" y2="324.7419">
		<stop  offset="0" style="stop-color:#000000"/>
		<stop  offset="1" style="stop-color:#000000"/>
	</linearGradient>
	<path stroke="url(#SVGID_39_)" stroke-miterlimit="10" d="M223.9,334.4c0-1,1-2.3,1.6-3.2c1.3-1.3,0.6-3.2-2.3-8.1
		c-4.2-7.1-4.5-8.4-2.6-8.4c1.6,0,8.7,11,8.7,12.9S223.9,336.3,223.9,334.4L223.9,334.4z"/>
	<linearGradient id="SVGID_40_" gradientUnits="userSpaceOnUse" x1="236.5614" y1="290.1583" x2="251.1487" y2="290.1583">
		<stop  offset="0" style="stop-color:#000000"/>
		<stop  offset="1" style="stop-color:#000000"/>
	</linearGradient>
	<path stroke="url(#SVGID_40_)" stroke-miterlimit="10" d="M244.8,297.3c-0.6-1.6-2.9-5.8-5.2-9.7c-2.3-4.2-3.2-7.1-2.3-6.8
		c1,0.3,2.9,2.6,4.5,5.5c1.6,2.6,2.9,5.5,4.2,6.1c1,1,1.3,2.3,0.6,3.2c-0.3,1.3,0.6,2.3,1.9,2.6c2.6,0.6,2.6,1,0,1
		C246.8,299.9,245.2,298.6,244.8,297.3L244.8,297.3z"/>
	<linearGradient id="SVGID_41_" gradientUnits="userSpaceOnUse" x1="214.6966" y1="273.2432" x2="257.2261" y2="273.2432">
		<stop  offset="0" style="stop-color:#000000"/>
		<stop  offset="1" style="stop-color:#000000"/>
	</linearGradient>
	<path stroke="url(#SVGID_41_)" stroke-miterlimit="10" d="M250,275.7l-4.5-8.1h-15.1c-12.6,0-15.1-0.3-15.1-2.3
		c0-1.6,2.3-2.3,15.5-1.6c10.6,0.3,16.1,1.3,17.7,2.6c3.9,4.2,9.7,15.8,8.1,16.4C255.2,283.5,252.6,280.3,250,275.7L250,275.7z"/>
	<linearGradient id="SVGID_42_" gradientUnits="userSpaceOnUse" x1="223.5523" y1="243.4489" x2="239.6093" y2="243.4489">
		<stop  offset="0" style="stop-color:#000000"/>
		<stop  offset="1" style="stop-color:#000000"/>
	</linearGradient>
	<path stroke="url(#SVGID_42_)" stroke-miterlimit="10" d="M237.4,251.9c-1.3-0.3-3.2-3.2-5.2-6.4c-3.9-6.8-4.5-7.1-6.8-2.3
		c-1.6,2.9-1.6,2.9-1.3-1.3c1-10,4.8-10.6,8.7-1.3c1.6,3.9,3.2,6.8,3.9,6.8c0.6,0,1.6,1.3,1.6,2.9c0.3,1.6,0.6,2.9,0.6,2.6
		C239.4,252.9,238.4,252.5,237.4,251.9z"/>
	<linearGradient id="SVGID_43_" gradientUnits="userSpaceOnUse" x1="218.0734" y1="195.8687" x2="229.4559" y2="195.8687">
		<stop  offset="0" style="stop-color:#000000"/>
		<stop  offset="1" style="stop-color:#000000"/>
	</linearGradient>
	<path stroke="url(#SVGID_43_)" stroke-miterlimit="10" d="M224.5,201c-1.3-1.9-3.2-5.2-4.5-7.4c-1.6-2.3-1.6-4.8-1.3-5.8
		c1-1.6,2.3,0,5.8,6.8c5.2,9.7,5.2,10,3.2,10C227.4,204.8,225.8,203.2,224.5,201z"/>
</g>
<g>
	<linearGradient id="SVGID_44_" gradientUnits="userSpaceOnUse" x1="304.2938" y1="413.4272" x2="390.2766" y2="413.4272">
		<stop  offset="0" style="stop-color:#000000"/>
		<stop  offset="1" style="stop-color:#000000"/>
	</linearGradient>
	<path stroke="url(#SVGID_44_)" stroke-miterlimit="10" d="M312.2,485.2c-7.4-1.6-2.6-3.2,8.4-3.2c6.4,0,11.6-0.3,11.6-0.6
		c0-0.3-1.6-3.5-3.9-7.4c-5.2-9.7-1.3-9,4.5,0.6l4.5,7.4h14.8c8.4,0,14.8-0.3,14.8-1s-2.9-6.4-7.1-13.2l-7.1-11.9l-6.1-0.3
		c-3.5,0-6.1,0.6-6.1,1.3c0,1,1.6,3.9,2.9,6.8c1.6,2.9,2.9,5.5,2.3,6.1c-1.6,1.6-4.8-2.3-7.4-8.4c-1.6-3.9-4.2-6.1-6.1-6.8
		c-7.4-1.6-2.9-3.5,9.7-3.5h13.2l8.4,15.5l8.7,15.5h7.1c3.9,0,7.1-0.3,7.1-0.6c0-0.3-3.2-5.8-7.1-11.9
		c-7.7-11.9-17.4-29.3-22.6-39.6l-3.2-6.1h-8.4c-8.4,0-8.4,0-11.3,5.5l-2.9,5.8l7.7,0.3c10.3,0.6,9,3.2-1.6,3.9
		c-12.9,1-13.2,0.3-8.1-9l4.5-8.1l-2.9-7.1c-4.2-9.7-3.9-10,1.6-1.6c4.5,6.4,4.8,7.1,11.3,7.1c3.5,0,6.4-0.6,6.4-1.3
		c0-0.6-4.8-9.7-11.3-20c-5.8-10.6-11.3-19.3-11.3-20.3c0-1.3-1.6-1.6-11.3-1.9c-9.7-0.6-11.3-1-11.3-2.3c0-2.3,15.8-1.6,16.4,0.3
		c0.3,1,1,0,1-2.3c0-2.3-0.3-4.2-1.3-4.8c-1-0.3-2.3-2.6-3.5-4.8c-1.3-2.3-4.5-8.4-7.4-14.5c-2.9-5.5-4.2-8.4-2.3-6.8
		c1.6,1.9,3.9,5.5,4.8,7.7c1.3,2.3,2.3,4.2,2.9,4.2c1,0,1.3,1.3,1.3,2.3c0,1.3,0.3,2.3,1.3,2.3c0.6,0,1.6,2.3,2.9,4.8
		c1.3,2.6,3.2,6.1,4.5,7.7c1.6,1.6,7.4,11.3,13.2,21.9s13.9,24.2,17.7,30.9c30.9,52.9,34.5,59,33.2,60.3
		C389.2,485.2,317.4,485.9,312.2,485.2L312.2,485.2z"/>
	<linearGradient id="SVGID_45_" gradientUnits="userSpaceOnUse" x1="305.5829" y1="466.2938" x2="314.4612" y2="466.2938">
		<stop  offset="0" style="stop-color:#000000"/>
		<stop  offset="1" style="stop-color:#000000"/>
	</linearGradient>
	<path stroke="url(#SVGID_45_)" stroke-miterlimit="10" d="M306.1,469.1c0-1.3,5.8-6.8,7.4-6.8c1,0,0.3,1.6-1,3.9
		C310.3,469.4,306.1,471.7,306.1,469.1z"/>
	<linearGradient id="SVGID_46_" gradientUnits="userSpaceOnUse" x1="310.6833" y1="426.7906" x2="319.6062" y2="426.7906">
		<stop  offset="0" style="stop-color:#000000"/>
		<stop  offset="1" style="stop-color:#000000"/>
	</linearGradient>
	<path stroke="url(#SVGID_46_)" stroke-miterlimit="10" d="M315.4,425c1.3-2.6,2.6-4.8,2.9-4.8c1.6,0,0.6,2.3-2.3,5.8l-2.9,3.9
		L315.4,425z"/>
	<linearGradient id="SVGID_47_" gradientUnits="userSpaceOnUse" x1="311.3841" y1="390.1564" x2="317.6502" y2="390.1564">
		<stop  offset="0" style="stop-color:#000000"/>
		<stop  offset="1" style="stop-color:#000000"/>
	</linearGradient>
	<path stroke="url(#SVGID_47_)" stroke-miterlimit="10" d="M311.9,390.8c0-1.6,1.3-2.6,3.2-2.6c2.3,0,2.6,0.3,1.3,1
		c-1.3,0.3-2.6,1.6-3.2,2.6C312.2,392.4,311.9,392.1,311.9,390.8z"/>
</g>
</svg>
